<svg width="48" height="55" viewBox="0 0 48 55" fill="none" xmlns="http://www.w3.org/2000/svg">
<path d="M48 12.8V46.4C48 47.2959 47.3001 48 46.4091 48H14.5909C13.6999 48 13 47.2959 13 46.4V1.6C13 0.703893 13.6999 0 14.5909 0H35.2727L48 12.8Z" fill="#4BB9EC"/>
<path d="M48 12.8V46.4C48 47.2959 47.2801 48 46.3636 48H30V0H34.9091L48 12.8Z" fill="#4BB9EC"/>
<path d="M47.5239 10.2261L37.7739 0.476125C37.4692 0.171383 37.0566 0 36.625 0H35V11.375C35 12.2724 35.7276 13 36.625 13H48V11.375C48 10.9434 47.8286 10.5308 47.5239 10.2261Z" fill="#D3E3FF"/>
<path d="M35 19.7434V53.4071C35 54.299 34.3001 55 33.4091 55H1.59091C0.699894 55 0 54.299 0 53.4071V8.59292C0 7.70078 0.699894 7 1.59091 7H22.2727L35 19.7434Z" fill="#E6F2FF"/>
<path d="M35 19.7434V53.4071C35 54.299 34.2801 55 33.3636 55H17V7H21.9091L35 19.7434Z" fill="#D3E3FF"/>
<path d="M34.5239 17.2261L24.7739 7.47613C24.4692 7.17138 24.0566 7 23.625 7H22V18.375C22 19.2724 22.7276 20 23.625 20H35V18.375C35 17.9434 34.8286 17.5308 34.5239 17.2261Z" fill="#0D84C7"/>
<path d="M13 12.5C13 13.3399 12.5051 14 11.875 14H5.125C4.49493 14 4 13.3399 4 12.5C4 11.6599 4.49493 11 5.125 11H11.875C12.5051 11 13 11.6599 13 12.5Z" fill="#0D84C7"/>
<path d="M13 18.5C13 19.3399 12.5051 20 11.875 20H5.125C4.49493 20 4 19.3399 4 18.5C4 17.6599 4.49493 17 5.125 17H11.875C12.5051 17 13 17.6599 13 18.5Z" fill="#0D84C7"/>
<path d="M22.8224 43.0985C22.4491 43.8972 21.5158 44.2302 20.738 43.8308L18 42.3665L13.8619 40.1367C13.0841 39.7371 12.7731 38.7388 13.1776 37.9068C13.3331 37.5741 13.6131 37.3077 13.9243 37.1747C14.3287 36.9418 14.8264 36.9418 15.2621 37.1747L18 38.6391L22.1381 40.8687C22.9159 41.2681 23.2269 42.2665 22.8224 43.0985Z" fill="#4BB9EC"/>
<path d="M18 35.361L15.2621 36.8253C14.8265 37.0582 14.3287 37.0582 13.9243 36.8253C13.6132 36.692 13.3331 36.4259 13.1776 36.093C12.7731 35.261 13.0841 34.2626 13.8619 33.8633L18 31.6336L20.7379 30.1692C21.5157 29.7699 22.4491 30.1026 22.8224 30.9013C23.2269 31.7333 22.9159 32.7317 22.1381 33.1312L18 35.361Z" fill="#4BB9EC"/>
<path d="M22.7403 43.0983C22.3663 43.8531 21.4314 44.1677 20.6521 43.7903L17.9092 42.4064V38.8839L22.0547 40.991C22.834 41.3684 23.1455 42.312 22.7403 43.0983Z" fill="#4BB9EC"/>
<path d="M17.9092 36.1161V32.5936L20.652 31.2097C21.4313 30.8323 22.3663 31.1467 22.7402 31.9015C23.1455 32.6878 22.834 33.6314 22.0547 34.0089L17.9092 36.1161Z" fill="#4BB9EC"/>
<path d="M11.6753 42.2178C9.09725 42.2178 7 40.1015 7 37.5C7 34.8986 9.09725 32.7823 11.6753 32.7823C14.2534 32.7823 16.3506 34.8986 16.3506 37.5C16.3506 40.1015 14.2534 42.2178 11.6753 42.2178Z" fill="#0D84C7"/>
<path d="M24.5 48C22.0186 48 20 45.9814 20 43.5C20 41.0186 22.0186 39 24.5 39C26.9814 39 29 41.0186 29 43.5C29 45.9814 26.9814 48 24.5 48Z" fill="#0D84C7"/>
<path d="M24.5 35C22.0186 35 20 32.9814 20 30.5C20 28.0186 22.0186 26 24.5 26C26.9814 26 29 28.0186 29 30.5C29 32.9814 26.9814 35 24.5 35Z" fill="#0D84C7"/>
</svg>
