<svg width="48" height="48" viewBox="0 0 48 48" fill="none" xmlns="http://www.w3.org/2000/svg">
<path d="M16.9988 16.1901C15.1309 14.7573 12.8836 14 10.5 14C8.11644 14 5.86923 14.7573 4.00129 16.1899C1.4584 18.1403 0 21.063 0 24.2085V24.9446C0 27.7321 2.33261 30 5.19964 30H15.8002C18.6674 30 21 27.7321 21 24.9446V24.2085C21 21.0631 19.5416 18.1406 16.9988 16.1901Z" fill="#EDF5FF"/>
<path d="M17.1894 16.1901C15.4104 14.7573 13.2702 14 11.0001 14H11V30H16.0478C18.7785 30 21 27.7322 21 24.9446V24.2085C21 21.0631 19.6111 18.1405 17.1894 16.1901Z" fill="#D5E8FE"/>
<path d="M17 16.3614C16.9578 16.3263 16.916 16.2907 16.8731 16.2563C15.0412 14.7802 12.8375 14 10.4999 14C8.16236 14 5.95857 14.7802 4.12673 16.256C4.08393 16.2905 4.04224 16.326 4 16.3612L10.5 23L17 16.3614Z" fill="#FFBB85"/>
<path d="M18 16.3614C17.9545 16.3263 17.9095 16.2907 17.8633 16.2563C15.8906 14.7802 13.5174 14 11.0001 14H11V22.9998L11.0002 23L18 16.3614Z" fill="#FFA761"/>
<path d="M10.0001 0C5.58882 0 2 3.58873 2 8C2 12.4113 5.58882 16 10.0001 16C14.4113 16 18 12.4113 18 8C18 3.58873 14.4113 0 10.0001 0Z" fill="#FDD1A3"/>
<path d="M11.0001 0L11 16H11.0001C15.4113 16 19 12.4113 19 8C19 3.58873 15.4113 0 11.0001 0Z" fill="#FFBB85"/>
<path d="M43.9987 16.1901C42.1308 14.7573 39.8836 14 37.5 14C35.1164 14 32.8691 14.7573 31.0012 16.1899C28.4584 18.1403 27 21.063 27 24.2085V24.9446C27 27.7321 29.3326 30 32.1996 30H42.8002C45.6674 30 48 27.7321 48 24.9446V24.2085C47.9999 21.0631 46.5415 18.1406 43.9987 16.1901Z" fill="#EDF5FF"/>
<path d="M44.1894 16.1901C42.4104 14.7573 40.2702 14 38.0001 14H38V30H43.0478C45.7785 30 48 27.7321 48 24.9446V24.2085C48 21.0631 46.6111 18.1406 44.1894 16.1901Z" fill="#D5E8FE"/>
<path d="M44 16.3614C43.9578 16.3263 43.916 16.2907 43.8731 16.2563C42.0412 14.7802 39.8375 14 37.4999 14C35.1624 14 32.9586 14.7802 31.1267 16.256C31.0839 16.2905 31.0422 16.326 31 16.3612L37.5 23L44 16.3614Z" fill="#FFBEAA"/>
<path d="M45 16.3614C44.9545 16.3263 44.9095 16.2907 44.8633 16.2563C42.8906 14.7802 40.5174 14 38.0001 14H38V22.9998L38.0002 23L45 16.3614Z" fill="#F5AFAA"/>
<path d="M38.0001 0C33.5888 0 30 3.58873 30 8C30 12.4113 33.5888 16 38.0001 16C42.4113 16 46 12.4113 46 8C46 3.58873 42.4112 0 38.0001 0Z" fill="#FFCDBE"/>
<path d="M38.0001 0H38V16H38.0001C42.4113 16 46 12.4113 46 8C46 3.58873 42.4112 0 38.0001 0Z" fill="#FFBEAA"/>
<path d="M30.9987 34.1901C29.1308 32.7573 26.8836 32 24.5 32C22.1164 32 19.8691 32.7573 18.0012 34.19C15.4583 36.1404 14 39.0631 14 42.2085V42.9446C14 45.7322 16.3326 48 19.1996 48H29.8002C32.6674 48 35 45.7322 35 42.9446V42.2085C34.9999 39.0631 33.5416 36.1405 30.9987 34.1901Z" fill="#EDF5FF"/>
<path d="M31.1894 34.1901C29.4104 32.7573 27.2702 32 25.0001 32H25V48H30.0478C32.7785 48 35 45.7322 35 42.9446V42.2085C35 39.0631 33.6111 36.1405 31.1894 34.1901Z" fill="#D5E8FE"/>
<path d="M31 34.3614C30.9578 34.3263 30.916 34.2907 30.8731 34.2563C29.0412 32.7802 26.8375 32 24.4999 32C22.1624 32 19.9586 32.7802 18.1267 34.2561C18.0839 34.2906 18.0422 34.3261 18 34.3612L24.5 41L31 34.3614Z" fill="#873F2E"/>
<path d="M32 34.3614C31.9545 34.3263 31.9095 34.2907 31.8633 34.2563C29.8906 32.7802 27.5174 32 25.0001 32H25V40.9998L25.0002 41L32 34.3614Z" fill="#542A20"/>
<path d="M24.0001 18C19.5888 18 16 21.5887 16 26C16 30.4113 19.5888 34 24.0001 34C28.4113 34 32 30.4113 32 26C32 21.5887 28.4113 18 24.0001 18Z" fill="#A34F3E"/>
<path d="M25.0001 18H25V34H25.0001C29.4113 34 33 30.4113 33 26C33 21.5887 29.4113 18 25.0001 18V18Z" fill="#873F2E"/>
</svg>
