<svg width="65" height="51" viewBox="0 0 65 51" fill="none" xmlns="http://www.w3.org/2000/svg">
<path d="M19.0166 9.07483L21.6613 6.45151L25.985 10.7402L23.3403 13.3635L19.0166 9.07483Z" fill="#ECFAFF"/>
<path d="M37.915 10.7422L42.2387 6.45349L44.8835 9.07681L40.5598 13.3655L37.915 10.7422Z" fill="#C4E6FE"/>
<path d="M30.0684 0.426636V10.2856H32.0642L32.9678 5.68411L32.0642 0.426636L30.0684 0.426636Z" fill="#ECFAFF"/>
<path d="M32.0645 0.426636H33.9672V10.2856H32.0645L32.0645 0.426636Z" fill="#C4E6FE"/>
<path d="M9.6142 23.7552L0 26.819L6.0061 35.0412L5.90223 45.2812L15.4523 42.0163L18.0069 30.5341L15.4523 15.4089L9.6142 23.7552Z" fill="#FFF06D"/>
<path d="M30.9045 26.819L21.2902 23.7552L15.4521 15.4089V42.0163L25.0022 45.2812L24.8983 35.0412L30.9045 26.819Z" fill="#FED943"/>
<path d="M42.71 23.7552L33.0957 26.819L39.1018 35.0412L38.9979 45.2812L48.548 42.0163L51.1026 30.5341L48.548 15.4089L42.71 23.7552Z" fill="#FFF06D"/>
<path d="M64.0002 26.819L54.386 23.7552L48.5479 15.4089V42.0163L58.098 45.2812L57.994 35.0412L64.0002 26.819Z" fill="#FED943"/>
<path d="M25.9973 28.7953L16.1123 31.8591L22.2875 40.0813L22.1807 50.3212L31.9998 47.0565L34.6263 35.5742L31.9998 20.449L25.9973 28.7953Z" fill="#FFF06D"/>
<path d="M47.8875 31.8591L38.0025 28.7953L32 20.449V47.0565L41.819 50.3212L41.7121 40.0813L47.8875 31.8591Z" fill="#FED943"/>
</svg>
