<svg width="46" height="53" viewBox="0 0 46 53" fill="none" xmlns="http://www.w3.org/2000/svg">
<path d="M23 0.949951L0 7.4728V18.9335C0 33.6556 8.80137 46.9148 22.3867 52.706L23 52.95L23.6133 52.706C37.1986 46.9148 46 33.6556 46 18.9335V7.4728L23 0.949951Z" fill="#E7E7E7"/>
<path d="M46 7.4728V18.9335C46 33.6556 37.1986 46.9148 23.6133 52.706L23 52.95V0.949951L46 7.4728Z" fill="#D3D3D8"/>
<path d="M22.9999 7.94995L6 12.7373V19.5981C6 30.8802 12.2438 41.1868 22.2582 46.5535L23 46.95L23.7418 46.5535C33.7564 41.1868 40 30.8803 40 19.5981V12.7373L22.9999 7.94995Z" fill="#4BB9EC"/>
<path d="M40 12.7374V19.5982C40 30.8803 33.7562 41.1869 23.7417 46.5536L23 46.95V7.94995L40 12.7374Z" fill="#1982BF"/>
</svg>
