<svg width="58" height="56" viewBox="0 0 58 56" fill="none" xmlns="http://www.w3.org/2000/svg">
<path d="M58 41.4164L39.9406 55.3008H23.9261L13.7037 51.8298L12 43.4296L13.7037 34.4744L15.4758 32.878C19.326 29.4417 25.1185 29.4417 28.9691 32.878L29.7867 33.6069C30.4001 34.162 31.1836 34.4744 32.0357 34.4744H42.6665C42.6665 37.0432 41.3036 39.2645 39.2592 40.4795C38.271 41.0693 37.0787 41.4164 35.8518 41.4164H27.3335V44.8878H40.8608L48.6976 39.6462C51.7643 37.5636 55.8875 38.3623 58 41.4164Z" fill="#FDE4E4"/>
<path d="M39.5 40.3561C38.485 40.9508 37.2602 41.3008 36 41.3008V34.3008H43C43 36.8911 41.6 39.1309 39.5 40.3561Z" fill="#FCCED3"/>
<path d="M58 41.2636L40.0615 55.3008H36V44.7732H40.9754L48.7599 39.474C51.806 37.3685 55.9017 38.1759 58 41.2636Z" fill="#FCCED3"/>
<path d="M14 51.3008H0V34.3008H14V51.3008Z" fill="#4BB9EC"/>
<path d="M35.4998 0.300781C26.9576 0.300781 20 7.25837 20 15.801C20 24.3427 26.9576 31.3008 35.4998 31.3008C44.042 31.3008 51 24.3427 51 15.801C51 7.25837 44.042 0.300781 35.4998 0.300781Z" fill="#FFDA2D"/>
<path d="M51 15.801C51 24.3427 44.2665 31.3008 36 31.3008V0.300781C44.2665 0.300781 51 7.25837 51 15.801Z" fill="#FDBF00"/>
<path d="M41 19.1759C41 21.3694 39.6001 23.2259 37.6667 23.9346V29.1992C37.1336 29.2671 36.5668 29.3008 36 29.3008C35.4336 29.3008 34.8668 29.2671 34.3333 29.1992V23.9346C32.3999 23.2259 31 21.3694 31 19.1759H34.3333C34.3333 20.1206 35.0666 20.8634 36 20.8634C36.9334 20.8634 37.6667 20.1206 37.6667 19.1759C37.6667 18.2309 36.9334 17.4885 36 17.4885C33.2335 17.4885 31 15.2271 31 12.4256C31 10.2321 32.3999 8.37568 34.3333 7.66699V2.4019C34.8668 2.33449 35.4336 2.30078 36 2.30078C36.5668 2.30078 37.1336 2.33449 37.6667 2.4019V7.66699C39.6001 8.37568 41 10.2321 41 12.4256H37.6667C37.6667 11.4805 36.9334 10.7381 36 10.7381C35.0666 10.7381 34.3333 11.4805 34.3333 12.4256C34.3333 13.3707 35.0666 14.1131 36 14.1131C38.767 14.1131 41 16.3744 41 19.1759Z" fill="#FDBF00"/>
<path d="M40.9358 19.1784C40.9358 21.3714 39.561 23.2274 37.6622 23.9359V29.1993C37.1387 29.2671 36.582 29.3008 36.0254 29.3008V20.8655C36.9421 20.8655 37.6622 20.1229 37.6622 19.1784C37.6622 18.2336 36.9421 17.4914 36.0254 17.4914V14.1168C38.7428 14.1168 40.9358 16.3776 40.9358 19.1784Z" fill="#FF9100"/>
<path d="M36.0254 10.7427V2.30737C36.582 2.30737 37.1387 2.34107 37.6622 2.40847V7.67228C39.561 8.3808 40.9358 10.2368 40.9358 12.4297H37.6622C37.6622 11.4849 36.9421 10.7427 36.0254 10.7427Z" fill="#FF9100"/>
</svg>
