<svg width="53" height="53" viewBox="0 0 53 53" fill="none" xmlns="http://www.w3.org/2000/svg">
<path d="M49.7128 8L41.3997 16.401L37.1623 15.4409L32.6602 16.8372L3 49.9637L6.00459 53L35.4162 23.278L42.8004 24.951L53 14.6437L49.7128 8Z" fill="#6283A3"/>
<path d="M36.526 11.5999L44.9102 3.28706L38.2797 0L27.993 10.1991L29.6626 17.583L0 46.9933L3.03024 49.9976L37.4842 15.8371L36.526 11.5999Z" fill="#9ABADB"/>
<path d="M1.77246 2.15698L15.7273 19.4436L33.1623 33.2795L33.9611 29.0369L6.59143 1.90015L1.77246 2.15698Z" fill="#9ABADB"/>
<path d="M1 7.79063L28.6734 35L33 34.2059L1.26191 3L1 7.79063Z" fill="#D1E8FF"/>
<path d="M35.4354 27L31 31.4354L36.5252 40.3392L47.5647 48L52 43.5646L35.4354 27Z" fill="#1982BF"/>
<path d="M31.1533 31.5532L48.0706 48.4705L43.5412 52.9998L26.624 36.0826L31.1533 31.5532Z" fill="#4BB9EC"/>
</svg>
