<svg width="58" height="58" viewBox="0 0 58 58" fill="none" xmlns="http://www.w3.org/2000/svg">
<path fill-rule="evenodd" clip-rule="evenodd" d="M54.8555 5.17748L52.8277 3.15088C48.8233 -0.8518 42.0178 -1.24421 37.6209 3.15088L29.5106 11.258C24.8487 15.918 25.9547 22.8676 29.0222 25.9335L25.9436 29.0109C23.2945 26.3629 16.2283 24.5349 11.2621 29.4991L3.15178 37.6059C-0.617929 41.3745 -1.46199 48.1955 3.15144 52.8069L5.1792 54.8338C8.86085 58.5142 15.6542 59.564 20.3864 54.8338L28.4968 46.7268C32.5188 42.7064 32.6797 36.2689 28.9849 32.0512L32.0639 28.9734C35.2207 32.1292 42.1911 33.0379 46.7454 28.4855L54.8556 20.3785C59.0481 16.1876 59.0481 9.36832 54.8555 5.17748ZM25.4554 43.6866L17.3447 51.7936C14.6148 54.5227 10.4863 54.0589 8.22055 51.7939L6.19279 49.767C3.31758 46.8929 4.09013 42.7486 6.19291 40.6464L14.3033 32.5393C17.3968 29.4468 21.6435 30.8137 22.8916 32.0615L19.3723 35.5794L22.4136 38.6193L25.933 35.1014C27.958 37.6312 27.7993 41.3435 25.4554 43.6866ZM43.7037 25.4453L51.8141 17.3384C54.2395 14.9138 54.4563 10.859 51.8143 8.21783L49.7864 6.19089C46.8755 3.28104 42.7291 4.12487 40.6621 6.19078L32.5518 14.298C29.8079 17.0409 30.4758 21.286 32.0736 22.8832L35.5933 19.3648L38.6347 22.4052L35.1153 25.9233C36.6052 27.4128 40.8339 28.3139 43.7037 25.4453Z" fill="#AEADB3"/>
<path d="M15.3011 18.0001L9.06801 11.8543L12.1844 8.78146L18.4175 14.9273L15.3011 18.0001Z" fill="#4BB9EC"/>
<path d="M22.6352 12.5262L20.3539 4.13116L24.6111 3.00648L26.8923 11.4015L22.6352 12.5262Z" fill="#4BB9EC"/>
<path d="M45.7666 31.0981L53.9927 33.3031L52.8902 37.4161L44.6641 35.2112L45.7666 31.0981Z" fill="#1982BF"/>
<path d="M42.3086 39.2883L48.3301 45.3099L45.3191 48.3209L39.2976 42.2993L42.3086 39.2883Z" fill="#1982BF"/>
<path d="M35.2246 44.6501L37.4286 52.8759L33.3157 53.9779L31.1117 45.7522L35.2246 44.6501Z" fill="#1982BF"/>
<path d="M11.834 26.6171L3.5288 24.3918L4.64148 20.239L12.9467 22.4643L11.834 26.6171Z" fill="#4BB9EC"/>
<path d="M28.8946 31.9711L31.9831 28.8838C35.1498 32.0494 42.1419 32.9608 46.7103 28.3944L54.8457 20.2623C59.0514 16.0586 59.0514 9.21825 54.8458 5.01449L53.8309 4L50.7798 7.04984L51.795 8.06434C54.4454 10.7135 54.2279 14.7808 51.795 17.2131L43.6594 25.3449C40.7807 28.2224 36.5388 27.3185 35.0443 25.8244L38.5746 22.2954L37.0513 20.7725L20.7801 37.0368L22.3034 38.5595L25.8337 35.0307C27.8647 37.5683 27.7056 41.2921 25.3543 43.6424L17.2184 51.7744C14.48 54.5118 10.3386 54.0466 8.06585 51.7747L7.05081 50.7601L4 53.8096L5.01493 54.8241C8.70802 58.5158 15.5225 59.5688 20.2694 54.8241L28.405 46.692C32.4395 42.6593 32.601 36.2018 28.8946 31.9711Z" fill="#828186"/>
</svg>
