<svg width="48" height="53" viewBox="0 0 48 53" fill="none" xmlns="http://www.w3.org/2000/svg">
<path d="M22.6001 44.2002L27 39.8002L18.2002 31L5 44.2002L13.7998 53L18.2002 48.6001L16 46.3999L20.3999 42L22.6001 44.2002Z" fill="#FF9F00"/>
<path fill-rule="evenodd" clip-rule="evenodd" d="M27.0578 3.59399C31.8503 -1.198 39.6133 -1.198 44.4059 3.59399C49.198 8.38637 49.198 16.1491 44.4059 20.9415C40.3724 24.9748 34.2354 25.5602 29.5299 22.8062L4.33693 48L0 43.6632L25.193 18.4695C22.4389 13.7641 23.0243 7.6273 27.0578 3.59399ZM32.4788 9.01527C30.6791 10.8149 30.6791 13.7206 32.4788 15.5206C34.2789 17.3203 37.1847 17.3203 38.9844 15.5206C40.7845 13.7206 40.7845 10.8149 38.9844 9.01527C37.1847 7.21523 34.2789 7.21523 32.4788 9.01527Z" fill="#FFE470"/>
<path d="M44.3927 20.5796C40.3444 24.6668 34.1848 25.26 29.462 22.4692L4.17624 48L2 45.8024L32.4217 15.0858C34.2284 16.9099 37.1449 16.9099 38.9513 15.0858C40.758 13.2621 40.758 10.3175 38.9513 8.4938L44.3927 3C49.2024 7.85649 49.2024 15.7231 44.3927 20.5796Z" fill="#FDBF00"/>
</svg>
