<svg width="52" height="52" viewBox="0 0 52 52" fill="none" xmlns="http://www.w3.org/2000/svg">
<path d="M13.4003 26.6584L11.816 27.2284C5.13345 29.6333 0.643555 36.0791 0.643555 43.2681V51.2857H26.1653L29.0008 43.4037L26.1653 26.6364L13.4003 26.6584Z" fill="#EDF5FF"/>
<path d="M51.6433 43.2167C51.6433 36.0634 47.1833 29.6284 40.5451 27.2041L38.93 26.6143L26.165 26.6363V51.2857H51.6433V43.2167Z" fill="#D5E8FE"/>
<path d="M13.4004 26.6583L26.1653 39.5775L28.5902 30.7422L26.1653 22.0652L13.4004 26.6583Z" fill="#FFCEBF"/>
<path d="M26.3206 22.0092L26.165 22.0652V39.5776L38.93 26.6143L26.3206 22.0092Z" fill="#F5AFAA"/>
<path d="M15.2562 5C14.896 5.33359 14.5674 5.75437 14.2747 6.28343C13.2366 8.15933 12.6436 10.3267 12.6436 12.6333V14.0934C12.6436 21.2101 18.2894 27 25.229 27C25.2362 27 25.2433 26.9997 25.2505 26.9997L27.6436 17.3255L25.2505 5L15.2562 5Z" fill="#FFDFCF"/>
<path d="M35.9933 5H25.6436V27C32.8139 26.988 38.6436 21.203 38.6436 14.0935V12.6335C38.6436 10.3268 38.0298 8.15948 36.9558 6.28355C36.6672 5.77959 36.3452 5.35617 35.9933 5Z" fill="#FFCEBF"/>
<path d="M25.1374 10.9997L27.6436 5.5L25.1374 0.000315693C25.1299 0.000315693 25.1224 0 25.1149 0C20.2029 0 15.9105 2.76126 13.6436 6.84454C16.8682 9.51025 20.9217 11 25.1149 11C25.1224 11 25.1299 10.9997 25.1374 10.9997Z" fill="#4BB9EC"/>
<path d="M25.6436 0V11C29.6646 10.9946 33.5509 9.50565 36.6436 6.84465C34.4689 2.76739 30.3539 0.00841888 25.6436 0Z" fill="#1982BF"/>
</svg>
