<svg width="168" height="78" viewBox="0 0 168 78" fill="none" xmlns="http://www.w3.org/2000/svg">
<path fill-rule="evenodd" clip-rule="evenodd" d="M49.4368 0L10.4182 12.6863C11.32 15.4773 11.8091 18.4542 11.8091 21.5456C11.8091 31.0968 7.15804 39.5593 0 44.7938L24.1098 78C49.0307 59.8819 58.9557 29.3156 49.4368 0Z" fill="#F3B45A"/>
<g filter="url(#filter0_d)">
<rect x="38" y="17" width="120" height="41" rx="8" fill="white"/>
</g>
<path d="M71.7598 31.3828V31.7129H72.7754V38.6699H71.7598V39H75.3145C76.474 39 77.4261 38.6403 78.1709 37.9209C78.8903 37.2184 79.25 36.3086 79.25 35.1914C79.25 33.7441 78.7168 32.682 77.6504 32.0049C76.9902 31.5902 76.2201 31.3828 75.3398 31.3828H71.7598ZM75.3145 31.7129C76.5755 31.7129 77.3711 32.3053 77.7012 33.4902C77.8281 33.9557 77.8916 34.5059 77.8916 35.1406C77.8831 37.485 77.0326 38.6615 75.3398 38.6699H73.9941V31.7129H75.3145ZM87.3721 33.6934L87.3086 31.3828H81.3545V31.7129H82.3701V38.6699H81.3545V39H87.3086L87.3721 36.6895H87.0928L86.8896 37.3369C86.6696 38.0648 86.3311 38.4922 85.874 38.6191C85.7555 38.653 85.6328 38.6699 85.5059 38.6699H83.5889V35.2549H86.1787V34.8867H83.5889V31.7129H85.5059C86.1576 31.7129 86.6146 32.1403 86.877 32.9951C86.8854 33.012 86.8896 33.029 86.8896 33.0459L87.0928 33.6934H87.3721ZM95.1387 39L95.2021 36.4229H94.9229L94.6816 37.3369C94.487 38.0817 94.1569 38.5133 93.6914 38.6318C93.5814 38.6572 93.4671 38.6699 93.3486 38.6699H91.6855V31.7129H92.7646V31.3828H89.4512V31.7129H90.4668V38.6699H89.4512V39H95.1387ZM100.011 39C100.011 38.8138 99.943 38.708 99.8076 38.6826C99.7653 38.6742 99.723 38.6699 99.6807 38.6699H98.9951V31.7129H100.011V31.3828H96.7607V31.7129H97.7764V38.6699H96.7607V39H100.011ZM105.581 39.0635L108.196 31.7129H108.831V31.3828H106.698V31.7129H107.714L105.632 37.5908L103.359 31.7129H104.375V31.3828H101.392V31.7129H102.128L104.565 38.0986C104.752 38.598 104.904 38.89 105.022 38.9746C105.116 39.0339 105.243 39.0635 105.403 39.0635H105.581ZM116.306 33.6934L116.242 31.3828H110.288V31.7129H111.304V38.6699H110.288V39H116.242L116.306 36.6895H116.026L115.823 37.3369C115.603 38.0648 115.265 38.4922 114.808 38.6191C114.689 38.653 114.566 38.6699 114.439 38.6699H112.522V35.2549H115.112V34.8867H112.522V31.7129H114.439C115.091 31.7129 115.548 32.1403 115.811 32.9951C115.819 33.012 115.823 33.029 115.823 33.0459L116.026 33.6934H116.306ZM121.635 39V38.6699H120.619V35.5088H121.711L123.717 39H125.697C125.697 38.8053 125.642 38.6995 125.532 38.6826C125.49 38.6742 125.443 38.6699 125.393 38.6699H124.974L122.942 35.3945C123.755 35.1829 124.305 34.7555 124.593 34.1123C124.694 33.8669 124.745 33.6172 124.745 33.3633C124.745 32.7285 124.47 32.2207 123.92 31.8398C123.463 31.5352 122.904 31.3828 122.244 31.3828H118.385V31.7129H119.4V38.6699H118.385V39H121.635ZM121.787 31.7129C122.498 31.7129 122.989 32.0133 123.26 32.6143C123.361 32.8597 123.412 33.1178 123.412 33.3887C123.412 34.015 123.201 34.4932 122.777 34.8232C122.515 35.0348 122.202 35.1406 121.838 35.1406H120.619V31.7129H121.787Z" fill="#F3B45A"/>
<defs>
<filter id="filter0_d" x="28" y="7" width="140" height="61" filterUnits="userSpaceOnUse" color-interpolation-filters="sRGB">
<feFlood flood-opacity="0" result="BackgroundImageFix"/>
<feColorMatrix in="SourceAlpha" type="matrix" values="0 0 0 0 0 0 0 0 0 0 0 0 0 0 0 0 0 0 127 0"/>
<feOffset/>
<feGaussianBlur stdDeviation="5"/>
<feColorMatrix type="matrix" values="0 0 0 0 0.409618 0 0 0 0 0.409618 0 0 0 0 0.409618 0 0 0 0.5 0"/>
<feBlend mode="normal" in2="BackgroundImageFix" result="effect1_dropShadow"/>
<feBlend mode="normal" in="SourceGraphic" in2="effect1_dropShadow" result="shape"/>
</filter>
</defs>
</svg>
