<svg width="158" height="83" viewBox="0 0 158 83" fill="none" xmlns="http://www.w3.org/2000/svg">
<path fill-rule="evenodd" clip-rule="evenodd" d="M27.1621 82.4111L66 69.7025C56.5252 40.3354 30.6613 21.4111 0 21.4111V62.459C12.6998 62.4936 23.4532 70.8567 27.1621 82.4111Z" fill="#E0682F"/>
<g filter="url(#filter0_d)">
<rect x="28" y="10" width="120" height="41" rx="8" fill="white"/>
</g>
<path d="M56.6309 24.3828V24.7129H57.6465V31.6699H56.6309V32H60.1855C61.3451 32 62.2972 31.6403 63.042 30.9209C63.7614 30.2184 64.1211 29.3086 64.1211 28.1914C64.1211 26.7441 63.5879 25.682 62.5215 25.0049C61.8613 24.5902 61.0911 24.3828 60.2109 24.3828H56.6309ZM60.1855 24.7129C61.4466 24.7129 62.2422 25.3053 62.5723 26.4902C62.6992 26.9557 62.7627 27.5059 62.7627 28.1406C62.7542 30.485 61.9036 31.6615 60.2109 31.6699H58.8652V24.7129H60.1855ZM69.4756 32C69.4756 31.8138 69.4079 31.708 69.2725 31.6826C69.2301 31.6742 69.1878 31.6699 69.1455 31.6699H68.46V24.7129H69.4756V24.3828H66.2256V24.7129H67.2412V31.6699H66.2256V32H69.4756ZM77.1787 29.9814C77.1787 29.2367 76.7725 28.6315 75.96 28.166C75.8245 28.0814 75.3421 27.8529 74.5127 27.4805C73.7679 27.1504 73.2982 26.8118 73.1035 26.4648C73.0104 26.2786 72.9639 26.084 72.9639 25.8809C72.9639 25.3392 73.2262 24.9626 73.751 24.751C73.9795 24.6579 74.2292 24.6113 74.5 24.6113C75.2025 24.6113 75.7357 24.8525 76.0996 25.335C76.3535 25.665 76.4762 26.0713 76.4678 26.5537H76.874V24.3193C76.654 24.3193 76.5312 24.3913 76.5059 24.5352C76.4889 24.5944 76.4805 24.6663 76.4805 24.751C75.8542 24.4209 75.1644 24.2559 74.4111 24.2559C73.4886 24.2559 72.7692 24.5098 72.2529 25.0176C71.9059 25.3646 71.7324 25.7793 71.7324 26.2617C71.7324 26.9727 72.126 27.5524 72.9131 28.001C73.057 28.0856 73.5394 28.3141 74.3604 28.6865C75.1136 29.0251 75.5918 29.3721 75.7949 29.7275C75.8965 29.9137 75.9473 30.1169 75.9473 30.3369C75.9473 30.9294 75.668 31.3525 75.1094 31.6064C74.847 31.7165 74.5592 31.7715 74.2461 31.7715C73.0189 31.7715 72.3079 31.0648 72.1133 29.6514C72.1048 29.5583 72.0964 29.4694 72.0879 29.3848H71.6816V32.0254C71.8848 32.0254 72.0075 31.9661 72.0498 31.8477C72.0667 31.7715 72.0752 31.6488 72.0752 31.4795C72.7269 31.9111 73.4759 32.127 74.3223 32.127C75.304 32.127 76.0658 31.8646 76.6074 31.3398C76.9883 30.959 77.1787 30.5062 77.1787 29.9814ZM85.7324 31.4287C85.7324 31.7842 85.7917 31.9873 85.9102 32.0381C85.9609 32.055 86.0371 32.0635 86.1387 32.0635V29.6387H85.8086C85.3854 31.0521 84.5348 31.763 83.2568 31.7715C82.0804 31.7715 81.3229 31.1198 80.9844 29.8164C80.8574 29.334 80.7939 28.7881 80.7939 28.1787C80.7939 26.5622 81.234 25.4831 82.1143 24.9414C82.4697 24.7214 82.8675 24.6113 83.3076 24.6113C84.5433 24.6283 85.3643 25.3223 85.7705 26.6934H86.1006L86.0625 24.3193C85.8678 24.3193 85.7493 24.3828 85.707 24.5098C85.6901 24.6113 85.6816 24.7637 85.6816 24.9668C85.1992 24.5944 84.5602 24.3659 83.7646 24.2812C83.5869 24.2643 83.4092 24.2559 83.2314 24.2559C81.8773 24.2559 80.8405 24.751 80.1211 25.7412C79.6217 26.4437 79.3721 27.252 79.3721 28.166C79.3721 29.2747 79.7191 30.2057 80.4131 30.959C81.141 31.7376 82.0931 32.127 83.2695 32.127C84.1328 32.1185 84.9538 31.8857 85.7324 31.4287ZM92.1533 24.2559C91.1208 24.2559 90.2321 24.5944 89.4873 25.2715C88.6917 26.0163 88.2939 26.9727 88.2939 28.1406C88.2939 29.4948 88.7637 30.5485 89.7031 31.3018C90.4056 31.8519 91.2096 32.127 92.1152 32.127C93.1393 32.127 94.0195 31.7842 94.7559 31.0986C95.5514 30.3454 95.9492 29.3763 95.9492 28.1914C95.9492 26.7949 95.4626 25.7327 94.4893 25.0049C93.8122 24.5055 93.0335 24.2559 92.1533 24.2559ZM92.1533 31.7715C90.6299 31.7715 89.8174 30.7305 89.7158 28.6484C89.7074 28.4961 89.7031 28.3438 89.7031 28.1914C89.7031 25.9993 90.3844 24.8145 91.7471 24.6367C91.874 24.6198 91.9967 24.6113 92.1152 24.6113C93.7148 24.6283 94.5189 25.8047 94.5273 28.1406C94.5273 30.2142 93.9307 31.4033 92.7373 31.708C92.5511 31.7503 92.3564 31.7715 92.1533 31.7715ZM101.71 32.0635L104.325 24.7129H104.96V24.3828H102.827V24.7129H103.843L101.761 30.5908L99.4883 24.7129H100.504V24.3828H97.5205V24.7129H98.2568L100.694 31.0986C100.881 31.598 101.033 31.89 101.151 31.9746C101.244 32.0339 101.371 32.0635 101.532 32.0635H101.71ZM112.435 26.6934L112.371 24.3828H106.417V24.7129H107.433V31.6699H106.417V32H112.371L112.435 29.6895H112.155L111.952 30.3369C111.732 31.0648 111.394 31.4922 110.937 31.6191C110.818 31.653 110.695 31.6699 110.568 31.6699H108.651V28.2549H111.241V27.8867H108.651V24.7129H110.568C111.22 24.7129 111.677 25.1403 111.939 25.9951C111.948 26.012 111.952 26.029 111.952 26.0459L112.155 26.6934H112.435ZM117.764 32V31.6699H116.748V28.5088H117.84L119.846 32H121.826C121.826 31.8053 121.771 31.6995 121.661 31.6826C121.619 31.6742 121.572 31.6699 121.521 31.6699H121.103L119.071 28.3945C119.884 28.1829 120.434 27.7555 120.722 27.1123C120.823 26.8669 120.874 26.6172 120.874 26.3633C120.874 25.7285 120.599 25.2207 120.049 24.8398C119.592 24.5352 119.033 24.3828 118.373 24.3828H114.514V24.7129H115.529V31.6699H114.514V32H117.764ZM117.916 24.7129C118.627 24.7129 119.118 25.0133 119.389 25.6143C119.49 25.8597 119.541 26.1178 119.541 26.3887C119.541 27.015 119.329 27.4932 118.906 27.8232C118.644 28.0348 118.331 28.1406 117.967 28.1406H116.748V24.7129H117.916Z" fill="#E0682F"/>
<defs>
<filter id="filter0_d" x="18" y="0" width="140" height="61" filterUnits="userSpaceOnUse" color-interpolation-filters="sRGB">
<feFlood flood-opacity="0" result="BackgroundImageFix"/>
<feColorMatrix in="SourceAlpha" type="matrix" values="0 0 0 0 0 0 0 0 0 0 0 0 0 0 0 0 0 0 127 0"/>
<feOffset/>
<feGaussianBlur stdDeviation="5"/>
<feColorMatrix type="matrix" values="0 0 0 0 0.51537 0 0 0 0 0.51537 0 0 0 0 0.51537 0 0 0 0.5 0"/>
<feBlend mode="normal" in2="BackgroundImageFix" result="effect1_dropShadow"/>
<feBlend mode="normal" in="SourceGraphic" in2="effect1_dropShadow" result="shape"/>
</filter>
</defs>
</svg>
