<svg width="159" height="83" viewBox="0 0 159 83" fill="none" xmlns="http://www.w3.org/2000/svg">
<path fill-rule="evenodd" clip-rule="evenodd" d="M158.921 62.4894C158.948 62.4894 158.974 62.4902 159 62.4904V21.4111C128.339 21.4111 102.475 40.3499 93 69.7395L131.695 82.4111C135.426 70.8483 146.204 62.4894 158.921 62.4894Z" fill="#14709C"/>
<g filter="url(#filter0_d)">
<rect x="10" y="10" width="120" height="41" rx="8" fill="white"/>
</g>
<path d="M40.9331 26.6934L40.8696 24.3828H34.9155V24.7129H35.9312V31.6699H34.9155V32H40.8696L40.9331 29.6895H40.6538L40.4507 30.3369C40.2306 31.0648 39.8921 31.4922 39.4351 31.6191C39.3166 31.653 39.1938 31.6699 39.0669 31.6699H37.1499V28.2549H39.7397V27.8867H37.1499V24.7129H39.0669C39.7186 24.7129 40.1756 25.1403 40.438 25.9951C40.4465 26.012 40.4507 26.029 40.4507 26.0459L40.6538 26.6934H40.9331ZM48.8013 29.9814C48.8013 29.2367 48.395 28.6315 47.5825 28.166C47.4471 28.0814 46.9647 27.8529 46.1353 27.4805C45.3905 27.1504 44.9207 26.8118 44.7261 26.4648C44.633 26.2786 44.5864 26.084 44.5864 25.8809C44.5864 25.3392 44.8488 24.9626 45.3735 24.751C45.6021 24.6579 45.8517 24.6113 46.1226 24.6113C46.825 24.6113 47.3582 24.8525 47.7222 25.335C47.9761 25.665 48.0988 26.0713 48.0903 26.5537H48.4966V24.3193C48.2765 24.3193 48.1538 24.3913 48.1284 24.5352C48.1115 24.5944 48.103 24.6663 48.103 24.751C47.4767 24.4209 46.7869 24.2559 46.0337 24.2559C45.1112 24.2559 44.3918 24.5098 43.8755 25.0176C43.5285 25.3646 43.355 25.7793 43.355 26.2617C43.355 26.9727 43.7485 27.5524 44.5356 28.001C44.6795 28.0856 45.1619 28.3141 45.9829 28.6865C46.7362 29.0251 47.2144 29.3721 47.4175 29.7275C47.519 29.9137 47.5698 30.1169 47.5698 30.3369C47.5698 30.9294 47.2905 31.3525 46.7319 31.6064C46.4696 31.7165 46.1818 31.7715 45.8687 31.7715C44.6414 31.7715 43.9305 31.0648 43.7358 29.6514C43.7274 29.5583 43.7189 29.4694 43.7104 29.3848H43.3042V32.0254C43.5073 32.0254 43.63 31.9661 43.6724 31.8477C43.6893 31.7715 43.6978 31.6488 43.6978 31.4795C44.3494 31.9111 45.0985 32.127 45.9448 32.127C46.9266 32.127 47.6883 31.8646 48.23 31.3398C48.6108 30.959 48.8013 30.5062 48.8013 29.9814ZM55.8188 32C55.8188 31.8138 55.7511 31.708 55.6157 31.6826C55.5734 31.6742 55.5311 31.6699 55.4888 31.6699H54.6128V24.7129H55.2603C55.9627 24.7214 56.4282 25.1572 56.6567 26.0205L56.8979 26.9219H57.2534L57.2026 24.3828H50.8677L50.8042 26.9219H51.1597L51.4009 26.0205C51.6379 25.1572 52.1076 24.7214 52.8101 24.7129H53.394V31.6699H52.188V32H55.8188ZM66.5181 32C66.5181 31.8053 66.4504 31.6995 66.3149 31.6826C66.2726 31.6742 66.2303 31.6699 66.188 31.6699H65.769L62.8491 24.3828H62.2778L59.4468 31.6699H58.647V32H60.9194C60.9194 31.8053 60.856 31.6995 60.729 31.6826C60.6867 31.6742 60.6444 31.6699 60.6021 31.6699H59.9546L60.9067 29.207H63.5347L64.4868 31.6699H63.6362V32H66.5181ZM63.3823 28.8389H61.0464L62.2144 25.8047L63.3823 28.8389ZM74.0435 26.1094C74.0435 25.4492 73.7218 24.9668 73.0786 24.6621C72.6808 24.4759 72.2069 24.3828 71.6567 24.3828H67.9751V24.7129H68.9907V31.6699H67.9751V32H71.7329C72.8332 32 73.6372 31.6572 74.145 30.9717C74.4074 30.6077 74.5386 30.21 74.5386 29.7783C74.5386 29.0505 74.2043 28.5088 73.5356 28.1533C73.2648 28.0094 72.9601 27.9079 72.6216 27.8486C73.2648 27.6201 73.6965 27.235 73.9165 26.6934C74.0011 26.4902 74.0435 26.2956 74.0435 26.1094ZM71.2632 24.7129C72.1434 24.7129 72.6343 25.1107 72.7358 25.9062C72.7528 26.0078 72.7612 26.1094 72.7612 26.2109C72.7612 26.7949 72.5369 27.2181 72.0884 27.4805C71.8514 27.6243 71.5763 27.6963 71.2632 27.6963H70.2095V24.7129H71.2632ZM71.5298 28.0391C72.283 28.0391 72.7866 28.3649 73.0405 29.0166C73.1336 29.2536 73.1802 29.5075 73.1802 29.7783C73.1802 30.4723 72.9559 30.9971 72.5073 31.3525C72.2365 31.5641 71.9149 31.6699 71.5425 31.6699H70.2095V28.0391H71.5298ZM82.2036 32L82.2671 29.4229H81.9878L81.7466 30.3369C81.5519 31.0817 81.2218 31.5133 80.7563 31.6318C80.6463 31.6572 80.5321 31.6699 80.4136 31.6699H78.7505V24.7129H79.8296V24.3828H76.5161V24.7129H77.5317V31.6699H76.5161V32H82.2036ZM87.0757 32C87.0757 31.8138 87.008 31.708 86.8726 31.6826C86.8302 31.6742 86.7879 31.6699 86.7456 31.6699H86.0601V24.7129H87.0757V24.3828H83.8257V24.7129H84.8413V31.6699H83.8257V32H87.0757ZM94.7788 29.9814C94.7788 29.2367 94.3726 28.6315 93.5601 28.166C93.4246 28.0814 92.9422 27.8529 92.1128 27.4805C91.368 27.1504 90.8983 26.8118 90.7036 26.4648C90.6105 26.2786 90.564 26.084 90.564 25.8809C90.564 25.3392 90.8263 24.9626 91.3511 24.751C91.5796 24.6579 91.8293 24.6113 92.1001 24.6113C92.8026 24.6113 93.3358 24.8525 93.6997 25.335C93.9536 25.665 94.0763 26.0713 94.0679 26.5537H94.4741V24.3193C94.2541 24.3193 94.1313 24.3913 94.106 24.5352C94.089 24.5944 94.0806 24.6663 94.0806 24.751C93.4543 24.4209 92.7645 24.2559 92.0112 24.2559C91.0887 24.2559 90.3693 24.5098 89.853 25.0176C89.506 25.3646 89.3325 25.7793 89.3325 26.2617C89.3325 26.9727 89.7261 27.5524 90.5132 28.001C90.6571 28.0856 91.1395 28.3141 91.9604 28.6865C92.7137 29.0251 93.1919 29.3721 93.395 29.7275C93.4966 29.9137 93.5474 30.1169 93.5474 30.3369C93.5474 30.9294 93.2681 31.3525 92.7095 31.6064C92.4471 31.7165 92.1593 31.7715 91.8462 31.7715C90.619 31.7715 89.908 31.0648 89.7134 29.6514C89.7049 29.5583 89.6965 29.4694 89.688 29.3848H89.2817V32.0254C89.4849 32.0254 89.6076 31.9661 89.6499 31.8477C89.6668 31.7715 89.6753 31.6488 89.6753 31.4795C90.327 31.9111 91.076 32.127 91.9224 32.127C92.9041 32.127 93.6659 31.8646 94.2075 31.3398C94.5884 30.959 94.7788 30.5062 94.7788 29.9814ZM100.095 32C100.095 31.8138 100.028 31.708 99.8921 31.6826C99.8498 31.6742 99.8075 31.6699 99.7651 31.6699H99.0796V28.2549H102.85V31.6699H101.834V32H105.084C105.084 31.8138 105.017 31.708 104.881 31.6826C104.839 31.6742 104.797 31.6699 104.754 31.6699H104.069V24.7129H105.084V24.3828H101.834V24.7129H102.85V27.8867H99.0796V24.7129H100.095V24.3828H96.8452V24.7129H97.8608V31.6699H96.8452V32H100.095Z" fill="#0D84C7"/>
<defs>
<filter id="filter0_d" x="0" y="0" width="140" height="61" filterUnits="userSpaceOnUse" color-interpolation-filters="sRGB">
<feFlood flood-opacity="0" result="BackgroundImageFix"/>
<feColorMatrix in="SourceAlpha" type="matrix" values="0 0 0 0 0 0 0 0 0 0 0 0 0 0 0 0 0 0 127 0"/>
<feOffset/>
<feGaussianBlur stdDeviation="5"/>
<feColorMatrix type="matrix" values="0 0 0 0 0.459494 0 0 0 0 0.459494 0 0 0 0 0.459494 0 0 0 0.5 0"/>
<feBlend mode="normal" in2="BackgroundImageFix" result="effect1_dropShadow"/>
<feBlend mode="normal" in="SourceGraphic" in2="effect1_dropShadow" result="shape"/>
</filter>
</defs>
</svg>
