<svg width="185" height="62" viewBox="0 0 185 62" fill="none" xmlns="http://www.w3.org/2000/svg">
<path fill-rule="evenodd" clip-rule="evenodd" d="M143.921 8.55363C137.626 8.55363 131.804 6.52109 127.067 3.07601L103 36.3519C127.933 54.5494 160.067 54.5494 185 36.3519L160.878 3C156.123 6.49129 150.262 8.55363 143.921 8.55363Z" fill="#7E5C8E"/>
<g filter="url(#filter0_d)">
<rect x="10" y="10.5889" width="120" height="41" rx="8" fill="white"/>
</g>
<path d="M51.7769 27.2822L51.7134 24.9717H45.7593V25.3018H46.7749V32.2588H45.7593V32.5889H51.7134L51.7769 30.2783H51.4976L51.2944 30.9258C51.0744 31.6536 50.7358 32.0811 50.2788 32.208C50.1603 32.2419 50.0376 32.2588 49.9106 32.2588H47.9937V28.8438H50.5835V28.4756H47.9937V25.3018H49.9106C50.5623 25.3018 51.0194 25.7292 51.2817 26.584C51.2902 26.6009 51.2944 26.6178 51.2944 26.6348L51.4976 27.2822H51.7769ZM59.1753 25.3018H60.2417V30.8496L55.481 24.9717H53.6401V25.3018H54.6558V32.2588H53.6401V32.5889H56.2427C56.2427 32.4027 56.175 32.2969 56.0396 32.2715C55.9972 32.263 55.9549 32.2588 55.9126 32.2588H55.1636V26.4951L60.1401 32.6523L60.7495 32.5254V25.3018H61.7651V24.9717H59.1753V25.3018ZM70.7505 32.5889C70.7505 32.3942 70.6828 32.2884 70.5474 32.2715C70.505 32.263 70.4627 32.2588 70.4204 32.2588H70.0015L67.0815 24.9717H66.5103L63.6792 32.2588H62.8794V32.5889H65.1519C65.1519 32.3942 65.0884 32.2884 64.9614 32.2715C64.9191 32.263 64.8768 32.2588 64.8345 32.2588H64.187L65.1392 29.7959H67.7671L68.7192 32.2588H67.8687V32.5889H70.7505ZM67.6147 29.4277H65.2788L66.4468 26.3936L67.6147 29.4277ZM78.2759 26.6982C78.2759 26.0381 77.9543 25.5557 77.311 25.251C76.9132 25.0648 76.4393 24.9717 75.8892 24.9717H72.2075V25.3018H73.2231V32.2588H72.2075V32.5889H75.9653C77.0656 32.5889 77.8696 32.2461 78.3774 31.5605C78.6398 31.1966 78.771 30.7988 78.771 30.3672C78.771 29.6393 78.4367 29.0977 77.7681 28.7422C77.4972 28.5983 77.1925 28.4967 76.854 28.4375C77.4972 28.209 77.9289 27.8239 78.1489 27.2822C78.2336 27.0791 78.2759 26.8844 78.2759 26.6982ZM75.4956 25.3018C76.3758 25.3018 76.8667 25.6995 76.9683 26.4951C76.9852 26.5967 76.9937 26.6982 76.9937 26.7998C76.9937 27.3838 76.7694 27.807 76.3208 28.0693C76.0838 28.2132 75.8088 28.2852 75.4956 28.2852H74.4419V25.3018H75.4956ZM75.7622 28.6279C76.5155 28.6279 77.019 28.9538 77.2729 29.6055C77.366 29.8424 77.4126 30.0964 77.4126 30.3672C77.4126 31.0612 77.1883 31.5859 76.7397 31.9414C76.4689 32.153 76.1473 32.2588 75.7749 32.2588H74.4419V28.6279H75.7622ZM86.436 32.5889L86.4995 30.0117H86.2202L85.979 30.9258C85.7843 31.6706 85.4543 32.1022 84.9888 32.2207C84.8787 32.2461 84.7645 32.2588 84.646 32.2588H82.9829V25.3018H84.062V24.9717H80.7485V25.3018H81.7642V32.2588H80.7485V32.5889H86.436ZM94.0757 27.2822L94.0122 24.9717H88.0581V25.3018H89.0737V32.2588H88.0581V32.5889H94.0122L94.0757 30.2783H93.7964L93.5933 30.9258C93.3732 31.6536 93.0347 32.0811 92.5776 32.208C92.4591 32.2419 92.3364 32.2588 92.2095 32.2588H90.2925V28.8438H92.8823V28.4756H90.2925V25.3018H92.2095C92.8612 25.3018 93.3182 25.7292 93.5806 26.584C93.589 26.6009 93.5933 26.6178 93.5933 26.6348L93.7964 27.2822H94.0757Z" fill="#7E5C8E"/>
<defs>
<filter id="filter0_d" x="0" y="0.588867" width="140" height="61" filterUnits="userSpaceOnUse" color-interpolation-filters="sRGB">
<feFlood flood-opacity="0" result="BackgroundImageFix"/>
<feColorMatrix in="SourceAlpha" type="matrix" values="0 0 0 0 0 0 0 0 0 0 0 0 0 0 0 0 0 0 127 0"/>
<feOffset/>
<feGaussianBlur stdDeviation="5"/>
<feColorMatrix type="matrix" values="0 0 0 0 0.471354 0 0 0 0 0.471354 0 0 0 0 0.471354 0 0 0 0.5 0"/>
<feBlend mode="normal" in2="BackgroundImageFix" result="effect1_dropShadow"/>
<feBlend mode="normal" in="SourceGraphic" in2="effect1_dropShadow" result="shape"/>
</filter>
</defs>
</svg>
