<svg width="163" height="78" viewBox="0 0 163 78" fill="none" xmlns="http://www.w3.org/2000/svg">
<path fill-rule="evenodd" clip-rule="evenodd" d="M151.075 21.5456C151.075 18.437 151.57 15.4443 152.482 12.6397L113.567 0C104.038 29.3156 113.973 59.8819 138.92 78L163 44.8695C155.776 39.641 151.075 31.1426 151.075 21.5456Z" fill="#00A755"/>
<g filter="url(#filter0_d)">
<rect x="10" y="22.5889" width="120" height="41" rx="8" fill="white"/>
</g>
<path d="M52.7402 36.9717H50.5693L47.9287 43.0273L45.0342 36.9717H43.1299V37.3018H44.1455V44.2588H43.1299V44.5889H45.6689C45.6689 44.4027 45.6012 44.2969 45.4658 44.2715C45.4235 44.263 45.3812 44.2588 45.3389 44.2588H44.6533V38.9268L47.4209 44.665H47.6875L50.5693 38.1523V44.2588H49.5537V44.5889H52.7402C52.7402 44.4027 52.6725 44.2969 52.5371 44.2715C52.4948 44.263 52.4525 44.2588 52.4102 44.2588H51.7246V37.3018H52.7402V36.9717ZM61.9414 44.5889C61.9414 44.3942 61.8737 44.2884 61.7383 44.2715C61.696 44.263 61.6536 44.2588 61.6113 44.2588H61.1924L58.2725 36.9717H57.7012L54.8701 44.2588H54.0703V44.5889H56.3428C56.3428 44.3942 56.2793 44.2884 56.1523 44.2715C56.11 44.263 56.0677 44.2588 56.0254 44.2588H55.3779L56.3301 41.7959H58.958L59.9102 44.2588H59.0596V44.5889H61.9414ZM58.8057 41.4277H56.4697L57.6377 38.3936L58.8057 41.4277ZM68.7178 37.3018H69.7842V42.8496L65.0234 36.9717H63.1826V37.3018H64.1982V44.2588H63.1826V44.5889H65.7852C65.7852 44.4027 65.7174 44.2969 65.582 44.2715C65.5397 44.263 65.4974 44.2588 65.4551 44.2588H64.7061V38.4951L69.6826 44.6523L70.292 44.5254V37.3018H71.3076V36.9717H68.7178V37.3018ZM80.293 44.5889C80.293 44.3942 80.2253 44.2884 80.0898 44.2715C80.0475 44.263 80.0052 44.2588 79.9629 44.2588H79.5439L76.624 36.9717H76.0527L73.2217 44.2588H72.4219V44.5889H74.6943C74.6943 44.3942 74.6309 44.2884 74.5039 44.2715C74.4616 44.263 74.4193 44.2588 74.377 44.2588H73.7295L74.6816 41.7959H77.3096L78.2617 44.2588H77.4111V44.5889H80.293ZM77.1572 41.4277H74.8213L75.9893 38.3936L77.1572 41.4277ZM86.4854 41.1484V41.4785H87.6152V43.5732C87.1159 44.0472 86.5192 44.3011 85.8252 44.335C84.3187 44.335 83.502 43.3574 83.375 41.4023C83.3581 41.1992 83.3496 40.9919 83.3496 40.7803C83.3496 38.6729 84.0055 37.4964 85.3174 37.251C85.4782 37.2256 85.6432 37.2129 85.8125 37.2129C86.6758 37.2129 87.3021 37.4753 87.6914 38C87.9368 38.3385 88.1484 38.8421 88.3262 39.5107H88.6689L88.6182 36.9971L87.4883 37.2383C86.9551 36.9759 86.3796 36.8447 85.7617 36.8447C84.7207 36.8447 83.8363 37.1833 83.1084 37.8604C82.3298 38.5882 81.9404 39.5446 81.9404 40.7295C81.9404 42.1175 82.4313 43.1839 83.4131 43.9287C84.1071 44.4535 84.8942 44.7158 85.7744 44.7158C86.4261 44.7158 87.0143 44.5719 87.5391 44.2842C87.5814 44.2588 87.6195 44.2376 87.6533 44.2207L88.8213 44.5889V41.4785H89.748V41.1484H86.4854ZM97.5781 39.2822L97.5146 36.9717H91.5605V37.3018H92.5762V44.2588H91.5605V44.5889H97.5146L97.5781 42.2783H97.2988L97.0957 42.9258C96.8757 43.6536 96.5371 44.0811 96.0801 44.208C95.9616 44.2419 95.8389 44.2588 95.7119 44.2588H93.7949V40.8438H96.3848V40.4756H93.7949V37.3018H95.7119C96.3636 37.3018 96.8206 37.7292 97.083 38.584C97.0915 38.6009 97.0957 38.6178 97.0957 38.6348L97.2988 39.2822H97.5781Z" fill="#00A755"/>
<defs>
<filter id="filter0_d" x="0" y="12.5889" width="140" height="61" filterUnits="userSpaceOnUse" color-interpolation-filters="sRGB">
<feFlood flood-opacity="0" result="BackgroundImageFix"/>
<feColorMatrix in="SourceAlpha" type="matrix" values="0 0 0 0 0 0 0 0 0 0 0 0 0 0 0 0 0 0 127 0"/>
<feOffset/>
<feGaussianBlur stdDeviation="5"/>
<feColorMatrix type="matrix" values="0 0 0 0 0.565274 0 0 0 0 0.565274 0 0 0 0 0.565274 0 0 0 0.5 0"/>
<feBlend mode="normal" in2="BackgroundImageFix" result="effect1_dropShadow"/>
<feBlend mode="normal" in="SourceGraphic" in2="effect1_dropShadow" result="shape"/>
</filter>
</defs>
</svg>
