<svg width="64" height="57" viewBox="0 0 64 57" fill="none" xmlns="http://www.w3.org/2000/svg">
<path d="M43 53.625V46.0134L30 43.625L32.4767 53.625H43Z" fill="#363535"/>
<path d="M21 53.625H32V43.625L21 46.0134V53.625Z" fill="#555555"/>
<path d="M31.5381 0.625L29 41.625L64 38.8637V0.625H31.5381Z" fill="#1982BF"/>
<path d="M32 0.625H0V38.8637L32 41.625V0.625Z" fill="#4BB9EC"/>
<path d="M6 16.625H22V20.625H6V16.625Z" fill="#E6F2FF"/>
<path d="M6 24.625H22V28.625H6V24.625Z" fill="#1982BF"/>
<path d="M6 8.625H22V12.625H6V8.625Z" fill="#E6F2FF"/>
<path d="M49 56.625V52.625H32.2607L31 54.625L32.2607 56.625H49Z" fill="#636363"/>
<path d="M15 52.625H32V56.625H15V52.625Z" fill="#828282"/>
<path d="M31.5381 46.625H64V35.625H31.5381L29 41.1255L31.5381 46.625Z" fill="#636363"/>
<path d="M0 35.625H32V46.625H0V35.625Z" fill="#828282"/>
<path d="M58 8.625H32.4664L30 18.625L32.4664 28.625H58V8.625Z" fill="#D3E3FF"/>
<path d="M26 8.625H32V28.625H26V8.625Z" fill="#E6F2FF"/>
</svg>
