<svg width="64" height="64" viewBox="0 0 64 64" fill="none" xmlns="http://www.w3.org/2000/svg">
<path d="M36.4111 30.0813H45.0001V33.9185H36.4111V30.0813Z" fill="#F2F2F2"/>
<path d="M21.0257 23.8207L23.6852 21.1078L29.7528 27.2975L27.0934 30.0104L21.0257 23.8207Z" fill="#F2F2F2"/>
<path d="M21.0248 40.1781L27.0924 33.9884L29.7519 36.7013L23.6842 42.891L21.0248 40.1781Z" fill="#F2F2F2"/>
<path d="M53.5 43C47.7102 43 43 38.2896 43 32.5C43 26.7104 47.7102 22 53.5 22C59.2898 22 64 26.7104 64 32.5C64 38.2896 59.2898 43 53.5 43Z" fill="#1982BF"/>
<path d="M14 28C6.28034 28 0 21.7195 0 14C0 6.28046 6.28034 0 14 0C21.7197 0 28 6.28046 28 14C28 21.7195 21.7197 28 14 28Z" fill="#E6F2FF"/>
<path d="M14 64C6.28034 64 0 57.7195 0 50C0 42.2805 6.28034 36 14 36C21.7197 36 28 42.2805 28 50C28 57.7195 21.7197 64 14 64Z" fill="#4BB9EC"/>
<path d="M31.6254 26L28 32.5L31.6254 39C35.146 39 38 36.0899 38 32.5C38 28.9101 35.146 26 31.6254 26Z" fill="#636363"/>
<path d="M26 32.5C26 36.0899 28.6863 39 32 39V26C28.6863 26 26 28.9101 26 32.5Z" fill="#828282"/>
</svg>
