<svg width="43" height="57" viewBox="0 0 43 57" fill="none" xmlns="http://www.w3.org/2000/svg">
<path d="M36.6299 42.3333C38.4464 42.3333 39.9189 40.841 39.9189 39C39.9189 37.159 38.4464 35.6667 36.6299 35.6667L17.9189 29V49L36.6299 42.3333Z" fill="#0F9AF0"/>
<path d="M3.91895 39C3.91895 40.841 5.42366 42.3333 7.27993 42.3333L21.9189 49V29L7.27993 35.6667C5.42366 35.6667 3.91895 37.1591 3.91895 39Z" fill="#13BDF7"/>
<path d="M36.6299 21.3333C38.4464 21.3333 39.9189 19.841 39.9189 18C39.9189 16.159 38.4464 14.6667 36.6299 14.6667L17.9189 8V28L36.6299 21.3333Z" fill="#0F9AF0"/>
<path d="M3.91895 18C3.91895 19.841 5.42366 21.3333 7.27993 21.3333L21.9189 28V8L7.27993 14.6667C5.42366 14.6667 3.91895 16.159 3.91895 18Z" fill="#13BDF7"/>
<path d="M42.9189 0H21.7067L13.9189 7.49994L21.7067 15H42.9189V0Z" fill="#636363"/>
<path d="M0.918945 0H21.9189V15H0.918945L0.918945 0Z" fill="#828282"/>
<path d="M42.9189 21H21.7067L13.9189 28.5L21.7067 36H42.9189V21Z" fill="#636363"/>
<path d="M0.918945 21H21.9189V36H0.918945L0.918945 21Z" fill="#828282"/>
<path d="M42.9189 42H21.7067L13.9189 49.5001L21.7067 57H42.9189V42Z" fill="#636363"/>
<path d="M0.918945 42H21.9189V57H0.918945L0.918945 42Z" fill="#828282"/>
</svg>
