<svg width="150" height="57" viewBox="0 0 150 57" fill="none" xmlns="http://www.w3.org/2000/svg">
<path d="M16.8636 35.1122C15.6363 26.9954 12.6363 19.4258 8.13632 12.8594L0.0454102 18.377C3.72723 23.7122 6.22723 29.9138 7.18177 36.5714C7.49996 38.7146 7.68177 40.9034 7.68177 43.0466C7.68177 47.6978 6.9545 52.2578 5.4545 56.6354H15.6818C17.5454 49.6586 17.9545 42.4082 16.8636 35.1122Z" fill="#1384C6"/>
<path d="M34.1364 0.0913086C33.2273 0.775309 32.3182 1.45931 31.4545 2.18891C20.6364 11.2633 14 24.0313 12.7273 38.1217C12.5909 39.5809 12.5455 41.0857 12.5 42.5449H22.2727C22.2727 41.3593 22.3182 40.1737 22.4545 38.9881C23.4545 27.4969 28.9091 17.1001 37.6818 9.71291C38.4091 9.12011 39.1364 8.52731 39.8636 7.98011L34.1364 0.0913086Z" fill="#1E9AD6"/>
<path d="M12.5454 42.5449H17.4545C17.409 40.0825 17.2272 37.5745 16.8636 35.1121C16.4545 32.3305 15.8181 29.5945 15 26.9041C13.8636 30.5065 13.0909 34.2913 12.7727 38.1217C12.6363 39.5809 12.5454 41.0857 12.5454 42.5449Z" fill="#0069A4"/>
<path d="M36.2725 31.182H39.2247V33.591C39.7243 31.7729 40.7235 30.8638 42.4039 30.8638C42.5402 30.8638 42.7219 30.8638 42.9944 30.9092V34.0001C42.7673 33.9547 42.5402 33.9547 42.3131 33.9547C40.6326 33.9547 39.6334 35.091 39.6334 37.0001V42.591H36.3179V31.182H36.2725Z" fill="white"/>
<path fill-rule="evenodd" clip-rule="evenodd" d="M42.5854 36.9092C42.5854 40.5001 44.9018 42.9092 48.4898 42.9092C51.3058 42.9092 53.3496 41.5456 54.1671 39.091L50.9424 38.8183C50.6245 39.9092 49.7615 40.5456 48.6715 40.5456C47.0819 40.5456 46.1735 39.4547 46.1735 37.4547H54.2125V37.0001C54.2125 33.1365 52.0779 30.8638 48.6715 30.8638C45.0835 30.8638 42.5854 33.4092 42.5854 36.9092ZM48.4444 33.0456C49.8524 33.0456 50.6699 33.9092 50.7153 35.591H46.1735C46.2643 33.9547 47.1273 33.0456 48.4444 33.0456Z" fill="white"/>
<path d="M53.2134 31.1819H56.6652L59.1178 38.9546L61.5704 31.1819H64.2046L60.117 42.6364H57.3464L53.2134 31.1819Z" fill="white"/>
<path fill-rule="evenodd" clip-rule="evenodd" d="M63.1602 36.9092C63.1602 40.5001 65.4765 42.9092 69.0645 42.9092C71.8805 42.9092 73.9243 41.5456 74.7418 39.091L71.5171 38.8183C71.1992 39.9092 70.3817 40.5456 69.2462 40.5456C67.6566 40.5456 66.7482 39.4547 66.7482 37.4547H74.7872V37.0001C74.7872 33.1365 72.6526 30.8638 69.2462 30.8638C65.6582 30.8638 63.1602 33.4092 63.1602 36.9092ZM69.0191 33.0456C70.4271 33.0456 71.2446 33.9092 71.29 35.591H66.7482C66.839 33.9547 67.702 33.0456 69.0191 33.0456Z" fill="white"/>
<path fill-rule="evenodd" clip-rule="evenodd" d="M79.011 42.9093C80.6915 42.9093 82.0086 42.1365 82.7807 40.7729C82.7807 41.4547 82.8715 42.0911 83.0078 42.5911H86.3233C86.0962 42.0911 86.0054 41.3638 86.0054 40.4093V35.3184C86.0054 32.1365 84.5974 30.8184 81.0094 30.8184C77.7847 30.8184 75.8771 32.0002 75.3321 34.2275L78.466 34.5456C78.6022 33.5002 79.4197 32.9547 80.8277 32.9547C82.0994 32.9547 82.7353 33.5911 82.7353 34.7275V35.2275C77.603 35.2729 75.0142 36.7275 75.0142 39.4093C75.0142 41.5456 76.513 42.9093 79.011 42.9093ZM80.2373 40.7275C79.1472 40.7275 78.5114 40.182 78.5114 39.2275C78.5114 37.8638 79.9193 37.0456 82.6899 37.0002V38.0456C82.6899 39.6365 81.6452 40.7275 80.2373 40.7275Z" fill="white"/>
<path d="M87.3682 27.1819H90.7745V42.6364H87.3682V27.1819Z" fill="white"/>
<path fill-rule="evenodd" clip-rule="evenodd" d="M97.1784 34.6819C97.1784 32.5455 99.086 30.9092 102.22 30.9092C103.037 30.9092 103.809 31.0455 104.582 31.3183C104.763 29.6819 105.672 28.9092 107.352 28.9092C107.471 28.9092 107.607 28.9178 107.761 28.9276C107.959 28.9402 108.186 28.9546 108.442 28.9546L108.397 31.3183C108.079 31.2728 107.806 31.2728 107.579 31.2728C106.716 31.2728 106.262 31.5001 106.08 32.091C106.898 32.8637 107.261 33.7274 107.261 34.6819C107.261 36.8637 105.49 38.3183 102.402 38.3183C101.766 38.3183 101.175 38.2728 100.63 38.1365C100.131 38.3183 99.9035 38.591 99.9035 38.9546C99.9035 39.5001 100.267 39.7728 101.039 39.8183L104.536 39.9546C107.08 40.0455 108.488 41.3637 108.488 43.1365C108.488 45.3637 106.444 46.6819 102.538 46.6819C98.3139 46.6819 96.2246 45.7274 96.2246 43.6819C96.2246 42.6819 96.8605 41.8637 97.9505 41.4546C97.2238 41.0455 96.8605 40.4546 96.8605 39.7274C96.8605 38.6365 97.5417 37.8183 98.9043 37.3637C97.7688 36.8183 97.1784 35.8637 97.1784 34.6819ZM99.1768 43.3637C99.1768 44.3637 100.267 44.7728 102.538 44.7728C104.582 44.7728 105.535 44.4546 105.535 43.5001C105.535 42.8637 104.99 42.5455 103.946 42.5001L99.9489 42.2728C99.4039 42.5455 99.1768 42.9092 99.1768 43.3637ZM102.265 36.5455C101.13 36.5455 100.403 35.8183 100.403 34.6365C100.403 33.5001 101.175 32.7728 102.265 32.7274C103.401 32.7274 104.127 33.5001 104.127 34.6365C104.127 35.8183 103.446 36.5455 102.265 36.5455Z" fill="white"/>
<path d="M108.669 31.182H111.622V33.591C112.121 31.7729 113.12 30.8638 114.801 30.8638C114.937 30.8638 115.119 30.8638 115.391 30.9092V34.0001C115.164 33.9547 114.937 33.9547 114.71 33.9547C113.03 33.9547 112.03 35.091 112.03 37.0001V42.591H108.669V31.182Z" fill="white"/>
<path fill-rule="evenodd" clip-rule="evenodd" d="M120.978 30.8638C117.526 30.8638 115.209 33.2729 115.209 36.9092C115.209 40.5456 117.526 42.9092 120.978 42.9547C124.429 42.9547 126.746 40.5456 126.746 36.9092C126.746 33.2274 124.429 30.8638 120.978 30.8638ZM120.978 33.182C122.386 33.182 123.203 34.4547 123.203 36.9092C123.203 39.3638 122.386 40.6365 120.978 40.6365C119.524 40.6365 118.752 39.3638 118.752 36.9092C118.752 34.4547 119.524 33.182 120.978 33.182Z" fill="white"/>
<path d="M137.737 42.6364H134.649V40.8182C133.922 42.2273 132.741 42.9546 131.242 42.9546C128.699 42.9546 127.518 41.5455 127.518 38.591V31.1819H130.834V38.3637C130.834 39.7728 131.379 40.5001 132.378 40.5001C133.559 40.5001 134.422 39.5455 134.422 37.9546V31.1819H137.737V42.6364Z" fill="white"/>
<path fill-rule="evenodd" clip-rule="evenodd" d="M142.37 31.1819H139.236V46.591H142.506V41.3637C143.142 42.4092 144.005 42.8637 145.186 42.8637C147.684 42.8637 149.637 40.5001 149.637 36.9092C149.637 33.1365 147.865 30.9092 145.458 30.9092C144.096 30.9092 143.142 31.591 142.37 32.9546V31.1819ZM146.094 36.9092C146.094 39.3183 145.504 40.5001 144.277 40.5001C143.187 40.5001 142.506 39.5455 142.506 37.7274V36.0001C142.506 34.4546 143.323 33.4092 144.323 33.4092C145.458 33.4092 146.094 34.591 146.094 36.9092Z" fill="white"/>
</svg>
