<svg width="78" height="43" viewBox="0 0 78 43" fill="none" xmlns="http://www.w3.org/2000/svg">
<path fill-rule="evenodd" clip-rule="evenodd" d="M2.30796 35.0649C3.82951 37.1416 6.0007 38.1883 8.80445 38.1883C11.7279 38.1883 13.9504 37.1584 15.4548 35.1156C16.9763 33.0558 17.7457 30.5571 17.7457 27.5688C17.7457 24.8 16.9934 22.3519 15.5232 20.2078C14.0529 18.0636 11.8646 17 8.95831 17C6.08618 17 3.8808 17.9961 2.32506 20.0052C0.769321 22.0143 0 24.513 0 27.5182C0 30.4727 0.769321 32.9883 2.30796 35.0649ZM5.11171 27.5857C5.11171 23.1455 6.39391 20.9338 8.94122 20.9338C11.403 20.9338 12.6511 23.1623 12.6511 27.6026C12.6511 32.0429 11.4201 34.2545 8.94122 34.2545C6.39391 34.2545 5.11171 32.026 5.11171 27.5857Z" fill="#1284C6"/>
<path fill-rule="evenodd" clip-rule="evenodd" d="M19.3516 22.6557V42.9999H23.7281V36.1622C24.4804 37.496 25.7113 38.1713 27.4551 38.1713C29.1818 38.1713 30.5666 37.496 31.6436 36.1285C32.7206 34.7609 33.2506 32.7518 33.2506 30.0674C33.2506 27.5518 32.7206 25.6272 31.6607 24.3103C30.6007 22.9934 29.2331 22.335 27.5747 22.335C25.6429 22.335 24.2923 23.196 23.523 24.8843V22.6557H19.3516ZM23.9504 33.4441C23.8136 33.0389 23.7452 32.296 23.7452 31.2155V28.9363C23.7452 27.67 24.0017 26.7752 24.4975 26.235C24.9932 25.7116 25.5403 25.4415 26.1558 25.4415C27.7628 25.4415 28.5663 26.9441 28.5663 29.9492C28.5663 32.0934 28.327 33.4778 27.8312 34.1025C27.3525 34.7272 26.7883 35.0479 26.1729 35.0479C25.6771 35.0479 25.2155 34.8791 24.7881 34.5583C24.3607 34.2207 24.0872 33.8492 23.9504 33.4441Z" fill="#1284C6"/>
<path d="M46.3471 26.3363L43.0475 27.2142C42.6543 25.8467 41.6628 25.1545 40.0386 25.1545C38.5171 25.1545 37.7478 25.6103 37.7478 26.522C37.7478 26.8766 37.8845 27.1805 38.1752 27.3831C38.4487 27.6025 39.1838 27.7882 40.3635 27.9233C42.1244 28.1597 43.4237 28.4129 44.2614 28.7168C45.0991 29.0207 45.7658 29.5272 46.2616 30.2363C46.7574 30.9454 46.9967 31.8233 46.9967 32.8701C46.9967 34.4402 46.3984 35.7064 45.1845 36.6856C43.9878 37.6649 42.2953 38.1545 40.1241 38.1545C36.2091 38.1545 33.867 36.6519 33.0977 33.6467L36.9272 33.0895C37.2349 34.4571 38.3803 35.1324 40.3464 35.1324C41.0986 35.1324 41.7311 34.9973 42.244 34.7272C42.7569 34.4571 43.0133 34.1025 43.0133 33.6467C43.0133 32.9376 42.4321 32.5324 41.2866 32.3973C38.1752 32.0259 36.1237 31.435 35.1492 30.6415C34.1747 29.848 33.6789 28.7337 33.6789 27.3155C33.6789 25.8636 34.2431 24.6818 35.3885 23.7363C36.534 22.7908 38.1239 22.3181 40.1754 22.3181C41.7995 22.3181 43.0988 22.6389 44.0733 23.2636C45.082 23.922 45.8171 24.935 46.3471 26.3363Z" fill="#1284C6"/>
<path d="M53.2889 17.3208V37.8676H48.4336V17.3208H53.2889Z" fill="#1284C6"/>
<path fill-rule="evenodd" clip-rule="evenodd" d="M70.5564 42.1221C71.1376 42.1221 71.7189 42.0545 72.3002 41.9195V38.2558C71.4283 38.3571 70.8128 38.4078 70.4538 38.4078C69.24 38.4078 68.6245 37.8675 68.6245 36.8208C69.8041 36.1623 70.8299 35.0312 71.7018 33.4779C72.5737 31.9247 73.0011 29.9662 73.0011 27.6195C73.0011 24.6987 72.2318 22.2 70.7102 20.1234C69.1887 18.0468 66.9662 17 64.0599 17C61.1194 17 58.8969 18.0468 57.3753 20.1403C55.8538 22.2338 55.1016 24.7156 55.1016 27.5857C55.1016 30.5234 55.888 33.0221 57.4608 35.0481C59.0336 37.0909 61.1365 38.1039 63.7692 38.1039C64.2992 38.1039 64.9489 38.0532 65.7353 37.9688C65.8379 39.1675 66.1969 40.1468 66.8294 40.9403C67.4449 41.7338 68.6929 42.1221 70.5564 42.1221ZM60.2133 27.5857C60.2133 23.1455 61.4955 20.9338 64.0428 20.9338C66.6072 20.9338 67.8894 23.1792 67.8894 27.6701C67.8894 32.0766 66.6072 34.2714 64.0257 34.2714C61.4784 34.2714 60.2133 32.0429 60.2133 27.5857Z" fill="#1284C6"/>
<path fill-rule="evenodd" clip-rule="evenodd" d="M74.5822 21.4151C74.9765 21.8113 75.446 22 76.0094 22C76.5728 22 77.061 21.7925 77.4178 21.434C77.8122 21.0189 78 20.5472 78 20.0189C78 19.4717 77.8122 19 77.4178 18.6038C77.0235 18.2075 76.554 18 75.9906 18C75.446 18 74.9765 18.1887 74.5822 18.5849C74.1878 18.9811 74 19.4528 74 20C74 20.5472 74.1878 21.0189 74.5822 21.4151ZM77.1737 18.8113C77.493 19.1321 77.6432 19.5283 77.6432 19.9811C77.6432 20.4528 77.4742 20.8491 77.1549 21.1509C76.8357 21.4717 76.4601 21.6415 76.0094 21.6415C75.5587 21.6415 75.1831 21.4717 74.8638 21.1509C74.5446 20.8302 74.3756 20.434 74.3756 19.9811C74.3756 19.5283 74.5446 19.1321 74.8638 18.8113C75.1831 18.4906 75.5775 18.3208 76.0282 18.3208C76.4789 18.3208 76.8545 18.4906 77.1737 18.8113ZM75.6714 20.2264V21.1509H75.0704V18.8113H76.1221C76.4413 18.8113 76.6667 18.8679 76.8169 19C76.9671 19.1321 77.0423 19.3019 77.0423 19.5094C77.0423 19.7925 76.9108 19.9811 76.6291 20.1132L77.0798 21.1509H76.4038L76.0282 20.2264H75.6714ZM75.6714 19.8113V19.2453V19.2264H75.9718C76.1033 19.2264 76.1972 19.2264 76.2347 19.2453C76.2723 19.2642 76.3099 19.283 76.3474 19.3396C76.385 19.3962 76.4038 19.4528 76.4038 19.5094C76.4038 19.6038 76.3662 19.6792 76.3099 19.7358C76.2535 19.7925 76.1408 19.8113 75.9906 19.8113H75.6714Z" fill="#1284C6"/>
<path d="M1.08594 3.29345H3.46432V5.26945C3.87204 3.76145 4.68748 3.03345 6.01258 3.03345C6.11451 3.03345 6.28439 3.05078 6.47127 3.06811V5.61611C6.2674 5.59878 6.09752 5.58145 5.91065 5.58145C4.55157 5.58145 3.75312 6.51745 3.75312 8.09478V12.7054H1.08594V3.29345Z" fill="#231F20"/>
<path fill-rule="evenodd" clip-rule="evenodd" d="M6.14844 8.00811C6.14844 10.9548 8.03415 12.9481 10.9222 12.9481C13.1986 12.9481 14.8465 11.8041 15.4581 9.82811L12.8589 9.60278C12.604 10.4868 11.9245 11.0068 11.0241 11.0068C9.74998 11.0068 9.01948 10.1054 9.01948 8.45878H15.5091V8.07745C15.5091 4.92278 13.7762 3.03345 11.0411 3.03345C8.15307 3.03345 6.14844 5.11345 6.14844 8.00811ZM10.8712 4.83611C12.0264 4.83611 12.689 5.56411 12.706 6.93345H9.03647C9.12141 5.58145 9.81794 4.83611 10.8712 4.83611Z" fill="#231F20"/>
<path d="M14.7422 3.29321H17.5113L19.4989 9.65455L21.4866 3.29321H23.6271L20.3314 12.6879H18.1059L14.7422 3.29321Z" fill="#231F20"/>
<path fill-rule="evenodd" clip-rule="evenodd" d="M22.7109 8.00811C22.7109 10.9548 24.5967 12.9481 27.4847 12.9481C29.7611 12.9481 31.409 11.8041 32.0206 9.82811L29.4214 9.60278C29.1665 10.4868 28.487 11.0068 27.5866 11.0068C26.3125 11.0068 25.582 10.1054 25.582 8.45878H32.0716V8.07745C32.0716 4.92278 30.3387 3.03345 27.6036 3.03345C24.7156 3.03345 22.7109 5.11345 22.7109 8.00811ZM27.4507 4.83611C28.6059 4.83611 29.2685 5.56411 29.2855 6.93345H25.616C25.7009 5.58145 26.3974 4.83611 27.4507 4.83611Z" fill="#231F20"/>
<path fill-rule="evenodd" clip-rule="evenodd" d="M35.5051 12.9134C36.8642 12.9134 37.9175 12.2894 38.5461 11.1628C38.5631 11.7348 38.614 12.2548 38.716 12.7054H41.4001C41.1963 12.2721 41.1283 11.6654 41.1283 10.9028V6.72545C41.1283 4.14278 39.9901 3.05078 37.0851 3.05078C34.4858 3.05078 32.9399 3.98678 32.5152 5.84145L35.0295 6.11878C35.1824 5.25211 35.8109 4.80145 36.9492 4.80145C37.9685 4.80145 38.4951 5.28678 38.4951 6.24011V6.62145C34.3499 6.65611 32.2773 7.81745 32.2773 10.0361C32.2773 11.7868 33.5005 12.9134 35.5051 12.9134ZM36.4905 11.1281C35.6071 11.1281 35.0974 10.6601 35.0974 9.89745C35.0974 8.77078 36.2356 8.11211 38.4781 8.07745V8.92678C38.4781 10.2094 37.6287 11.1281 36.4905 11.1281Z" fill="#231F20"/>
<path d="M42.2148 0H44.967V12.688H42.2148V0Z" fill="#231F20"/>
</svg>
