<svg width="150" height="57" viewBox="0 0 150 57" fill="none" xmlns="http://www.w3.org/2000/svg">
<path d="M16.8641 35.1122C15.6368 26.9954 12.6368 19.4258 8.13681 12.8594L0.0458984 18.377C3.72772 23.7122 6.22772 29.9138 7.18226 36.5714C7.50044 38.7146 7.68226 40.9034 7.68226 43.0466C7.68226 47.6978 6.95499 52.2578 5.45499 56.6354H15.6823C17.5459 49.6586 17.955 42.4082 16.8641 35.1122Z" fill="#1384C6"/>
<path d="M34.1364 0.0913086C33.2273 0.775309 32.3182 1.45931 31.4545 2.18891C20.6364 11.2633 14 24.0313 12.7273 38.1217C12.5909 39.5809 12.5455 41.0857 12.5 42.5449H22.2727C22.2727 41.3593 22.3182 40.1737 22.4545 38.9881C23.4545 27.4969 28.9091 17.1001 37.6818 9.71291C38.4091 9.12011 39.1364 8.52731 39.8636 7.98011L34.1364 0.0913086Z" fill="#1E9AD6"/>
<path d="M12.5459 42.5449H17.455C17.4095 40.0825 17.2277 37.5745 16.8641 35.1121C16.455 32.3305 15.8186 29.5945 15.0004 26.9041C13.8641 30.5065 13.0914 34.2913 12.7732 38.1217C12.6368 39.5809 12.5459 41.0857 12.5459 42.5449Z" fill="#0069A4"/>
<path d="M36.2734 31.182H39.2256V33.591C39.7252 31.7729 40.7244 30.8638 42.4049 30.8638C42.5412 30.8638 42.7228 30.8638 42.9953 30.9092V34.0001C42.7683 33.9547 42.5412 33.9547 42.3141 33.9547C40.6336 33.9547 39.6344 35.091 39.6344 37.0001V42.591H36.3189V31.182H36.2734Z" fill="#6A7870"/>
<path fill-rule="evenodd" clip-rule="evenodd" d="M42.5869 36.9092C42.5869 40.5001 44.9032 42.9092 48.4913 42.9092C51.3072 42.9092 53.3511 41.5456 54.1686 39.091L50.9439 38.8183C50.626 39.9092 49.763 40.5456 48.673 40.5456C47.0833 40.5456 46.175 39.4547 46.175 37.4547H54.214V37.0001C54.214 33.1365 52.0793 30.8638 48.673 30.8638C45.0849 30.8638 42.5869 33.4092 42.5869 36.9092ZM48.4459 33.0456C49.8538 33.0456 50.6714 33.9092 50.7168 35.591H46.175C46.2658 33.9547 47.1287 33.0456 48.4459 33.0456Z" fill="#6A7870"/>
<path d="M53.2148 31.1819H56.6666L59.1192 38.9546L61.5718 31.1819H64.2061L60.1184 42.6364H57.3479L53.2148 31.1819Z" fill="#6A7870"/>
<path fill-rule="evenodd" clip-rule="evenodd" d="M63.1611 36.9092C63.1611 40.5001 65.4775 42.9092 69.0655 42.9092C71.8815 42.9092 73.9253 41.5456 74.7428 39.091L71.5181 38.8183C71.2002 39.9092 70.3826 40.5456 69.2472 40.5456C67.6575 40.5456 66.7492 39.4547 66.7492 37.4547H74.7882V37.0001C74.7882 33.1365 72.6536 30.8638 69.2472 30.8638C65.6591 30.8638 63.1611 33.4092 63.1611 36.9092ZM69.0201 33.0456C70.4281 33.0456 71.2456 33.9092 71.291 35.591H66.7492C66.84 33.9547 67.703 33.0456 69.0201 33.0456Z" fill="#6A7870"/>
<path fill-rule="evenodd" clip-rule="evenodd" d="M79.0124 42.9093C80.6929 42.9093 82.01 42.1365 82.7822 40.7729C82.7822 41.4547 82.873 42.0911 83.0093 42.5911H86.3248C86.0977 42.0911 86.0069 41.3638 86.0069 40.4093V35.3184C86.0069 32.1365 84.5989 30.8184 81.0108 30.8184C77.7861 30.8184 75.8786 32.0002 75.3336 34.2275L78.4674 34.5456C78.6037 33.5002 79.4212 32.9547 80.8292 32.9547C82.1009 32.9547 82.7367 33.5911 82.7367 34.7275V35.2275C77.6045 35.2729 75.0156 36.7275 75.0156 39.4093C75.0156 41.5456 76.5144 42.9093 79.0124 42.9093ZM80.2387 40.7275C79.1487 40.7275 78.5128 40.182 78.5128 39.2275C78.5128 37.8638 79.9208 37.0456 82.6913 37.0002V38.0456C82.6913 39.6365 81.6467 40.7275 80.2387 40.7275Z" fill="#6A7870"/>
<path d="M87.3691 27.1819H90.7755V42.6364H87.3691V27.1819Z" fill="#6A7870"/>
<path fill-rule="evenodd" clip-rule="evenodd" d="M97.1794 34.6819C97.1794 32.5455 99.0869 30.9092 102.221 30.9092C103.038 30.9092 103.81 31.0455 104.583 31.3183C104.764 29.6819 105.673 28.9092 107.353 28.9092C107.472 28.9092 107.608 28.9178 107.762 28.9276C107.96 28.9402 108.187 28.9546 108.443 28.9546L108.398 31.3183C108.08 31.2728 107.807 31.2728 107.58 31.2728C106.717 31.2728 106.263 31.5001 106.081 32.091C106.899 32.8637 107.262 33.7274 107.262 34.6819C107.262 36.8637 105.491 38.3183 102.402 38.3183C101.767 38.3183 101.176 38.2728 100.631 38.1365C100.132 38.3183 99.9045 38.591 99.9045 38.9546C99.9045 39.5001 100.268 39.7728 101.04 39.8183L104.537 39.9546C107.081 40.0455 108.489 41.3637 108.489 43.1365C108.489 45.3637 106.445 46.6819 102.539 46.6819C98.3148 46.6819 96.2256 45.7274 96.2256 43.6819C96.2256 42.6819 96.8614 41.8637 97.9515 41.4546C97.2248 41.0455 96.8614 40.4546 96.8614 39.7274C96.8614 38.6365 97.5427 37.8183 98.9053 37.3637C97.7698 36.8183 97.1794 35.8637 97.1794 34.6819ZM99.1778 43.3637C99.1778 44.3637 100.268 44.7728 102.539 44.7728C104.583 44.7728 105.536 44.4546 105.536 43.5001C105.536 42.8637 104.991 42.5455 103.947 42.5001L99.9499 42.2728C99.4049 42.5455 99.1778 42.9092 99.1778 43.3637ZM102.266 36.5455C101.131 36.5455 100.404 35.8183 100.404 34.6365C100.404 33.5001 101.176 32.7728 102.266 32.7274C103.402 32.7274 104.128 33.5001 104.128 34.6365C104.128 35.8183 103.447 36.5455 102.266 36.5455Z" fill="#6A7870"/>
<path d="M108.67 31.182H111.622V33.591C112.122 31.7729 113.121 30.8638 114.801 30.8638C114.938 30.8638 115.119 30.8638 115.392 30.9092V34.0001C115.165 33.9547 114.938 33.9547 114.711 33.9547C113.03 33.9547 112.031 35.091 112.031 37.0001V42.591H108.67V31.182Z" fill="#6A7870"/>
<path fill-rule="evenodd" clip-rule="evenodd" d="M120.979 30.8638C117.527 30.8638 115.211 33.2729 115.211 36.9092C115.211 40.5456 117.527 42.9092 120.979 42.9547C124.431 42.9547 126.747 40.5456 126.747 36.9092C126.747 33.2274 124.431 30.8638 120.979 30.8638ZM120.979 33.182C122.387 33.182 123.205 34.4547 123.205 36.9092C123.205 39.3638 122.387 40.6365 120.979 40.6365C119.526 40.6365 118.754 39.3638 118.754 36.9092C118.754 34.4547 119.526 33.182 120.979 33.182Z" fill="#6A7870"/>
<path d="M137.738 42.6364H134.649V40.8182C133.923 42.2273 132.742 42.9546 131.243 42.9546C128.699 42.9546 127.519 41.5455 127.519 38.591V31.1819H130.834V38.3637C130.834 39.7728 131.379 40.5001 132.378 40.5001C133.559 40.5001 134.422 39.5455 134.422 37.9546V31.1819H137.738V42.6364Z" fill="#6A7870"/>
<path fill-rule="evenodd" clip-rule="evenodd" d="M142.37 31.1819H139.236V46.591H142.506V41.3637C143.142 42.4092 144.005 42.8637 145.186 42.8637C147.684 42.8637 149.637 40.5001 149.637 36.9092C149.637 33.1365 147.866 30.9092 145.459 30.9092C144.096 30.9092 143.142 31.591 142.37 32.9546V31.1819ZM146.094 36.9092C146.094 39.3183 145.504 40.5001 144.278 40.5001C143.188 40.5001 142.506 39.5455 142.506 37.7274V36.0001C142.506 34.4546 143.324 33.4092 144.323 33.4092C145.459 33.4092 146.094 34.591 146.094 36.9092Z" fill="#6A7870"/>
<path d="M36.2734 31.182H39.2256V33.591C39.7252 31.7729 40.7244 30.8638 42.4049 30.8638C42.5412 30.8638 42.7228 30.8638 42.9953 30.9092V34.0001C42.7683 33.9547 42.5412 33.9547 42.3141 33.9547C40.6336 33.9547 39.6344 35.091 39.6344 37.0001V42.591H36.3189V31.182H36.2734Z" fill="black"/>
<path fill-rule="evenodd" clip-rule="evenodd" d="M42.5869 36.9092C42.5869 40.5001 44.9032 42.9092 48.4913 42.9092C51.3072 42.9092 53.3511 41.5456 54.1686 39.091L50.9439 38.8183C50.626 39.9092 49.763 40.5456 48.673 40.5456C47.0833 40.5456 46.175 39.4547 46.175 37.4547H54.214V37.0001C54.214 33.1365 52.0793 30.8638 48.673 30.8638C45.0849 30.8638 42.5869 33.4092 42.5869 36.9092ZM48.4459 33.0456C49.8538 33.0456 50.6714 33.9092 50.7168 35.591H46.175C46.2658 33.9547 47.1287 33.0456 48.4459 33.0456Z" fill="black"/>
<path d="M53.2148 31.1819H56.6666L59.1192 38.9546L61.5718 31.1819H64.2061L60.1184 42.6364H57.3479L53.2148 31.1819Z" fill="black"/>
<path fill-rule="evenodd" clip-rule="evenodd" d="M63.1611 36.9092C63.1611 40.5001 65.4775 42.9092 69.0655 42.9092C71.8815 42.9092 73.9253 41.5456 74.7428 39.091L71.5181 38.8183C71.2002 39.9092 70.3826 40.5456 69.2472 40.5456C67.6575 40.5456 66.7492 39.4547 66.7492 37.4547H74.7882V37.0001C74.7882 33.1365 72.6536 30.8638 69.2472 30.8638C65.6591 30.8638 63.1611 33.4092 63.1611 36.9092ZM69.0201 33.0456C70.4281 33.0456 71.2456 33.9092 71.291 35.591H66.7492C66.84 33.9547 67.703 33.0456 69.0201 33.0456Z" fill="black"/>
<path fill-rule="evenodd" clip-rule="evenodd" d="M79.0124 42.9093C80.6929 42.9093 82.01 42.1365 82.7822 40.7729C82.7822 41.4547 82.873 42.0911 83.0093 42.5911H86.3248C86.0977 42.0911 86.0069 41.3638 86.0069 40.4093V35.3184C86.0069 32.1365 84.5989 30.8184 81.0108 30.8184C77.7861 30.8184 75.8786 32.0002 75.3336 34.2275L78.4674 34.5456C78.6037 33.5002 79.4212 32.9547 80.8292 32.9547C82.1009 32.9547 82.7367 33.5911 82.7367 34.7275V35.2275C77.6045 35.2729 75.0156 36.7275 75.0156 39.4093C75.0156 41.5456 76.5144 42.9093 79.0124 42.9093ZM80.2387 40.7275C79.1487 40.7275 78.5128 40.182 78.5128 39.2275C78.5128 37.8638 79.9208 37.0456 82.6913 37.0002V38.0456C82.6913 39.6365 81.6467 40.7275 80.2387 40.7275Z" fill="black"/>
<path d="M87.3691 27.1819H90.7755V42.6364H87.3691V27.1819Z" fill="black"/>
<path fill-rule="evenodd" clip-rule="evenodd" d="M97.1794 34.6819C97.1794 32.5455 99.0869 30.9092 102.221 30.9092C103.038 30.9092 103.81 31.0455 104.583 31.3183C104.764 29.6819 105.673 28.9092 107.353 28.9092C107.472 28.9092 107.608 28.9178 107.762 28.9276C107.96 28.9402 108.187 28.9546 108.443 28.9546L108.398 31.3183C108.08 31.2728 107.807 31.2728 107.58 31.2728C106.717 31.2728 106.263 31.5001 106.081 32.091C106.899 32.8637 107.262 33.7274 107.262 34.6819C107.262 36.8637 105.491 38.3183 102.402 38.3183C101.767 38.3183 101.176 38.2728 100.631 38.1365C100.132 38.3183 99.9045 38.591 99.9045 38.9546C99.9045 39.5001 100.268 39.7728 101.04 39.8183L104.537 39.9546C107.081 40.0455 108.489 41.3637 108.489 43.1365C108.489 45.3637 106.445 46.6819 102.539 46.6819C98.3148 46.6819 96.2256 45.7274 96.2256 43.6819C96.2256 42.6819 96.8614 41.8637 97.9515 41.4546C97.2248 41.0455 96.8614 40.4546 96.8614 39.7274C96.8614 38.6365 97.5427 37.8183 98.9053 37.3637C97.7698 36.8183 97.1794 35.8637 97.1794 34.6819ZM99.1778 43.3637C99.1778 44.3637 100.268 44.7728 102.539 44.7728C104.583 44.7728 105.536 44.4546 105.536 43.5001C105.536 42.8637 104.991 42.5455 103.947 42.5001L99.9499 42.2728C99.4049 42.5455 99.1778 42.9092 99.1778 43.3637ZM102.266 36.5455C101.131 36.5455 100.404 35.8183 100.404 34.6365C100.404 33.5001 101.176 32.7728 102.266 32.7274C103.402 32.7274 104.128 33.5001 104.128 34.6365C104.128 35.8183 103.447 36.5455 102.266 36.5455Z" fill="black"/>
<path d="M108.67 31.182H111.622V33.591C112.122 31.7729 113.121 30.8638 114.801 30.8638C114.938 30.8638 115.119 30.8638 115.392 30.9092V34.0001C115.165 33.9547 114.938 33.9547 114.711 33.9547C113.03 33.9547 112.031 35.091 112.031 37.0001V42.591H108.67V31.182Z" fill="black"/>
<path fill-rule="evenodd" clip-rule="evenodd" d="M120.979 30.8638C117.527 30.8638 115.211 33.2729 115.211 36.9092C115.211 40.5456 117.527 42.9092 120.979 42.9547C124.431 42.9547 126.747 40.5456 126.747 36.9092C126.747 33.2274 124.431 30.8638 120.979 30.8638ZM120.979 33.182C122.387 33.182 123.205 34.4547 123.205 36.9092C123.205 39.3638 122.387 40.6365 120.979 40.6365C119.526 40.6365 118.754 39.3638 118.754 36.9092C118.754 34.4547 119.526 33.182 120.979 33.182Z" fill="black"/>
<path d="M137.738 42.6364H134.649V40.8182C133.923 42.2273 132.742 42.9546 131.243 42.9546C128.699 42.9546 127.519 41.5455 127.519 38.591V31.1819H130.834V38.3637C130.834 39.7728 131.379 40.5001 132.378 40.5001C133.559 40.5001 134.422 39.5455 134.422 37.9546V31.1819H137.738V42.6364Z" fill="black"/>
<path fill-rule="evenodd" clip-rule="evenodd" d="M142.37 31.1819H139.236V46.591H142.506V41.3637C143.142 42.4092 144.005 42.8637 145.186 42.8637C147.684 42.8637 149.637 40.5001 149.637 36.9092C149.637 33.1365 147.866 30.9092 145.459 30.9092C144.096 30.9092 143.142 31.591 142.37 32.9546V31.1819ZM146.094 36.9092C146.094 39.3183 145.504 40.5001 144.278 40.5001C143.188 40.5001 142.506 39.5455 142.506 37.7274V36.0001C142.506 34.4546 143.324 33.4092 144.323 33.4092C145.459 33.4092 146.094 34.591 146.094 36.9092Z" fill="black"/>
</svg>
