<svg width="347" height="220" viewBox="0 0 347 220" fill="none" xmlns="http://www.w3.org/2000/svg">
<path fill-rule="evenodd" clip-rule="evenodd" d="M181.921 62.4894C181.948 62.4894 181.974 62.4902 182 62.4904V21.4111C151.339 21.4111 125.475 40.3499 116 69.7395L154.695 82.4111C158.426 70.8483 169.204 62.4894 181.921 62.4894Z" fill="#0D84C7"/>
<path fill-rule="evenodd" clip-rule="evenodd" d="M151.075 98.5456C151.075 95.437 151.57 92.4443 152.482 89.6397L113.567 77C104.038 106.316 113.973 136.882 138.92 155L163 121.869C155.776 116.641 151.075 108.143 151.075 98.5456Z" fill="#00A755"/>
<path fill-rule="evenodd" clip-rule="evenodd" d="M187.921 133.554C181.626 133.554 175.804 131.521 171.067 128.076L147 161.352C171.933 179.549 204.067 179.549 229 161.352L204.878 128C200.123 131.491 194.262 133.554 187.921 133.554Z" fill="#7E5C8E"/>
<path fill-rule="evenodd" clip-rule="evenodd" d="M257.437 77.4111L218.418 90.0974C219.32 92.8885 219.809 95.8653 219.809 98.9568C219.809 108.508 215.158 116.97 208 122.205L232.11 155.411C257.031 137.293 266.956 106.727 257.437 77.4111Z" fill="#F3B45A"/>
<path fill-rule="evenodd" clip-rule="evenodd" d="M216.162 82.4111L255 69.7025C245.525 40.3354 219.661 21.4111 189 21.4111V62.459C201.7 62.4936 212.453 70.8567 216.162 82.4111Z" fill="#E0682F"/>
<g filter="url(#filter0_d)">
<rect x="33" y="10" width="120" height="41" rx="8" fill="white"/>
</g>
<path d="M63.9331 26.6934L63.8696 24.3828H57.9155V24.7129H58.9312V31.6699H57.9155V32H63.8696L63.9331 29.6895H63.6538L63.4507 30.3369C63.2306 31.0648 62.8921 31.4922 62.4351 31.6191C62.3166 31.653 62.1938 31.6699 62.0669 31.6699H60.1499V28.2549H62.7397V27.8867H60.1499V24.7129H62.0669C62.7186 24.7129 63.1756 25.1403 63.438 25.9951C63.4465 26.012 63.4507 26.029 63.4507 26.0459L63.6538 26.6934H63.9331ZM71.8013 29.9814C71.8013 29.2367 71.395 28.6315 70.5825 28.166C70.4471 28.0814 69.9647 27.8529 69.1353 27.4805C68.3905 27.1504 67.9207 26.8118 67.7261 26.4648C67.633 26.2786 67.5864 26.084 67.5864 25.8809C67.5864 25.3392 67.8488 24.9626 68.3735 24.751C68.6021 24.6579 68.8517 24.6113 69.1226 24.6113C69.825 24.6113 70.3582 24.8525 70.7222 25.335C70.9761 25.665 71.0988 26.0713 71.0903 26.5537H71.4966V24.3193C71.2765 24.3193 71.1538 24.3913 71.1284 24.5352C71.1115 24.5944 71.103 24.6663 71.103 24.751C70.4767 24.4209 69.7869 24.2559 69.0337 24.2559C68.1112 24.2559 67.3918 24.5098 66.8755 25.0176C66.5285 25.3646 66.355 25.7793 66.355 26.2617C66.355 26.9727 66.7485 27.5524 67.5356 28.001C67.6795 28.0856 68.1619 28.3141 68.9829 28.6865C69.7362 29.0251 70.2144 29.3721 70.4175 29.7275C70.519 29.9137 70.5698 30.1169 70.5698 30.3369C70.5698 30.9294 70.2905 31.3525 69.7319 31.6064C69.4696 31.7165 69.1818 31.7715 68.8687 31.7715C67.6414 31.7715 66.9305 31.0648 66.7358 29.6514C66.7274 29.5583 66.7189 29.4694 66.7104 29.3848H66.3042V32.0254C66.5073 32.0254 66.63 31.9661 66.6724 31.8477C66.6893 31.7715 66.6978 31.6488 66.6978 31.4795C67.3494 31.9111 68.0985 32.127 68.9448 32.127C69.9266 32.127 70.6883 31.8646 71.23 31.3398C71.6108 30.959 71.8013 30.5062 71.8013 29.9814ZM78.8188 32C78.8188 31.8138 78.7511 31.708 78.6157 31.6826C78.5734 31.6742 78.5311 31.6699 78.4888 31.6699H77.6128V24.7129H78.2603C78.9627 24.7214 79.4282 25.1572 79.6567 26.0205L79.8979 26.9219H80.2534L80.2026 24.3828H73.8677L73.8042 26.9219H74.1597L74.4009 26.0205C74.6379 25.1572 75.1076 24.7214 75.8101 24.7129H76.394V31.6699H75.188V32H78.8188ZM89.5181 32C89.5181 31.8053 89.4504 31.6995 89.3149 31.6826C89.2726 31.6742 89.2303 31.6699 89.188 31.6699H88.769L85.8491 24.3828H85.2778L82.4468 31.6699H81.647V32H83.9194C83.9194 31.8053 83.856 31.6995 83.729 31.6826C83.6867 31.6742 83.6444 31.6699 83.6021 31.6699H82.9546L83.9067 29.207H86.5347L87.4868 31.6699H86.6362V32H89.5181ZM86.3823 28.8389H84.0464L85.2144 25.8047L86.3823 28.8389ZM97.0435 26.1094C97.0435 25.4492 96.7218 24.9668 96.0786 24.6621C95.6808 24.4759 95.2069 24.3828 94.6567 24.3828H90.9751V24.7129H91.9907V31.6699H90.9751V32H94.7329C95.8332 32 96.6372 31.6572 97.145 30.9717C97.4074 30.6077 97.5386 30.21 97.5386 29.7783C97.5386 29.0505 97.2043 28.5088 96.5356 28.1533C96.2648 28.0094 95.9601 27.9079 95.6216 27.8486C96.2648 27.6201 96.6965 27.235 96.9165 26.6934C97.0011 26.4902 97.0435 26.2956 97.0435 26.1094ZM94.2632 24.7129C95.1434 24.7129 95.6343 25.1107 95.7358 25.9062C95.7528 26.0078 95.7612 26.1094 95.7612 26.2109C95.7612 26.7949 95.5369 27.2181 95.0884 27.4805C94.8514 27.6243 94.5763 27.6963 94.2632 27.6963H93.2095V24.7129H94.2632ZM94.5298 28.0391C95.283 28.0391 95.7866 28.3649 96.0405 29.0166C96.1336 29.2536 96.1802 29.5075 96.1802 29.7783C96.1802 30.4723 95.9559 30.9971 95.5073 31.3525C95.2365 31.5641 94.9149 31.6699 94.5425 31.6699H93.2095V28.0391H94.5298ZM105.204 32L105.267 29.4229H104.988L104.747 30.3369C104.552 31.0817 104.222 31.5133 103.756 31.6318C103.646 31.6572 103.532 31.6699 103.414 31.6699H101.75V24.7129H102.83V24.3828H99.5161V24.7129H100.532V31.6699H99.5161V32H105.204ZM110.076 32C110.076 31.8138 110.008 31.708 109.873 31.6826C109.83 31.6742 109.788 31.6699 109.746 31.6699H109.06V24.7129H110.076V24.3828H106.826V24.7129H107.841V31.6699H106.826V32H110.076ZM117.779 29.9814C117.779 29.2367 117.373 28.6315 116.56 28.166C116.425 28.0814 115.942 27.8529 115.113 27.4805C114.368 27.1504 113.898 26.8118 113.704 26.4648C113.611 26.2786 113.564 26.084 113.564 25.8809C113.564 25.3392 113.826 24.9626 114.351 24.751C114.58 24.6579 114.829 24.6113 115.1 24.6113C115.803 24.6113 116.336 24.8525 116.7 25.335C116.954 25.665 117.076 26.0713 117.068 26.5537H117.474V24.3193C117.254 24.3193 117.131 24.3913 117.106 24.5352C117.089 24.5944 117.081 24.6663 117.081 24.751C116.454 24.4209 115.764 24.2559 115.011 24.2559C114.089 24.2559 113.369 24.5098 112.853 25.0176C112.506 25.3646 112.333 25.7793 112.333 26.2617C112.333 26.9727 112.726 27.5524 113.513 28.001C113.657 28.0856 114.139 28.3141 114.96 28.6865C115.714 29.0251 116.192 29.3721 116.395 29.7275C116.497 29.9137 116.547 30.1169 116.547 30.3369C116.547 30.9294 116.268 31.3525 115.709 31.6064C115.447 31.7165 115.159 31.7715 114.846 31.7715C113.619 31.7715 112.908 31.0648 112.713 29.6514C112.705 29.5583 112.696 29.4694 112.688 29.3848H112.282V32.0254C112.485 32.0254 112.608 31.9661 112.65 31.8477C112.667 31.7715 112.675 31.6488 112.675 31.4795C113.327 31.9111 114.076 32.127 114.922 32.127C115.904 32.127 116.666 31.8646 117.208 31.3398C117.588 30.959 117.779 30.5062 117.779 29.9814ZM123.095 32C123.095 31.8138 123.028 31.708 122.892 31.6826C122.85 31.6742 122.807 31.6699 122.765 31.6699H122.08V28.2549H125.85V31.6699H124.834V32H128.084C128.084 31.8138 128.017 31.708 127.881 31.6826C127.839 31.6742 127.797 31.6699 127.754 31.6699H127.069V24.7129H128.084V24.3828H124.834V24.7129H125.85V27.8867H122.08V24.7129H123.095V24.3828H119.845V24.7129H120.861V31.6699H119.845V32H123.095Z" fill="#0D84C7"/>
<g filter="url(#filter1_d)">
<rect x="10" y="99.5889" width="120" height="41" rx="8" fill="white"/>
</g>
<g filter="url(#filter2_d)">
<rect x="128" y="168.589" width="120" height="41" rx="8" fill="white"/>
</g>
<g filter="url(#filter3_d)">
<rect x="217" y="10" width="120" height="41" rx="8" fill="white"/>
</g>
<path d="M245.631 24.3828V24.7129H246.646V31.6699H245.631V32H249.186C250.345 32 251.297 31.6403 252.042 30.9209C252.761 30.2184 253.121 29.3086 253.121 28.1914C253.121 26.7441 252.588 25.682 251.521 25.0049C250.861 24.5902 250.091 24.3828 249.211 24.3828H245.631ZM249.186 24.7129C250.447 24.7129 251.242 25.3053 251.572 26.4902C251.699 26.9557 251.763 27.5059 251.763 28.1406C251.754 30.485 250.904 31.6615 249.211 31.6699H247.865V24.7129H249.186ZM258.476 32C258.476 31.8138 258.408 31.708 258.272 31.6826C258.23 31.6742 258.188 31.6699 258.146 31.6699H257.46V24.7129H258.476V24.3828H255.226V24.7129H256.241V31.6699H255.226V32H258.476ZM266.179 29.9814C266.179 29.2367 265.772 28.6315 264.96 28.166C264.825 28.0814 264.342 27.8529 263.513 27.4805C262.768 27.1504 262.298 26.8118 262.104 26.4648C262.01 26.2786 261.964 26.084 261.964 25.8809C261.964 25.3392 262.226 24.9626 262.751 24.751C262.979 24.6579 263.229 24.6113 263.5 24.6113C264.202 24.6113 264.736 24.8525 265.1 25.335C265.354 25.665 265.476 26.0713 265.468 26.5537H265.874V24.3193C265.654 24.3193 265.531 24.3913 265.506 24.5352C265.489 24.5944 265.48 24.6663 265.48 24.751C264.854 24.4209 264.164 24.2559 263.411 24.2559C262.489 24.2559 261.769 24.5098 261.253 25.0176C260.906 25.3646 260.732 25.7793 260.732 26.2617C260.732 26.9727 261.126 27.5524 261.913 28.001C262.057 28.0856 262.539 28.3141 263.36 28.6865C264.114 29.0251 264.592 29.3721 264.795 29.7275C264.896 29.9137 264.947 30.1169 264.947 30.3369C264.947 30.9294 264.668 31.3525 264.109 31.6064C263.847 31.7165 263.559 31.7715 263.246 31.7715C262.019 31.7715 261.308 31.0648 261.113 29.6514C261.105 29.5583 261.096 29.4694 261.088 29.3848H260.682V32.0254C260.885 32.0254 261.007 31.9661 261.05 31.8477C261.067 31.7715 261.075 31.6488 261.075 31.4795C261.727 31.9111 262.476 32.127 263.322 32.127C264.304 32.127 265.066 31.8646 265.607 31.3398C265.988 30.959 266.179 30.5062 266.179 29.9814ZM274.732 31.4287C274.732 31.7842 274.792 31.9873 274.91 32.0381C274.961 32.055 275.037 32.0635 275.139 32.0635V29.6387H274.809C274.385 31.0521 273.535 31.763 272.257 31.7715C271.08 31.7715 270.323 31.1198 269.984 29.8164C269.857 29.334 269.794 28.7881 269.794 28.1787C269.794 26.5622 270.234 25.4831 271.114 24.9414C271.47 24.7214 271.868 24.6113 272.308 24.6113C273.543 24.6283 274.364 25.3223 274.771 26.6934H275.101L275.062 24.3193C274.868 24.3193 274.749 24.3828 274.707 24.5098C274.69 24.6113 274.682 24.7637 274.682 24.9668C274.199 24.5944 273.56 24.3659 272.765 24.2812C272.587 24.2643 272.409 24.2559 272.231 24.2559C270.877 24.2559 269.84 24.751 269.121 25.7412C268.622 26.4437 268.372 27.252 268.372 28.166C268.372 29.2747 268.719 30.2057 269.413 30.959C270.141 31.7376 271.093 32.127 272.27 32.127C273.133 32.1185 273.954 31.8857 274.732 31.4287ZM281.153 24.2559C280.121 24.2559 279.232 24.5944 278.487 25.2715C277.692 26.0163 277.294 26.9727 277.294 28.1406C277.294 29.4948 277.764 30.5485 278.703 31.3018C279.406 31.8519 280.21 32.127 281.115 32.127C282.139 32.127 283.02 31.7842 283.756 31.0986C284.551 30.3454 284.949 29.3763 284.949 28.1914C284.949 26.7949 284.463 25.7327 283.489 25.0049C282.812 24.5055 282.034 24.2559 281.153 24.2559ZM281.153 31.7715C279.63 31.7715 278.817 30.7305 278.716 28.6484C278.707 28.4961 278.703 28.3438 278.703 28.1914C278.703 25.9993 279.384 24.8145 280.747 24.6367C280.874 24.6198 280.997 24.6113 281.115 24.6113C282.715 24.6283 283.519 25.8047 283.527 28.1406C283.527 30.2142 282.931 31.4033 281.737 31.708C281.551 31.7503 281.356 31.7715 281.153 31.7715ZM290.71 32.0635L293.325 24.7129H293.96V24.3828H291.827V24.7129H292.843L290.761 30.5908L288.488 24.7129H289.504V24.3828H286.521V24.7129H287.257L289.694 31.0986C289.881 31.598 290.033 31.89 290.151 31.9746C290.244 32.0339 290.371 32.0635 290.532 32.0635H290.71ZM301.435 26.6934L301.371 24.3828H295.417V24.7129H296.433V31.6699H295.417V32H301.371L301.435 29.6895H301.155L300.952 30.3369C300.732 31.0648 300.394 31.4922 299.937 31.6191C299.818 31.653 299.695 31.6699 299.568 31.6699H297.651V28.2549H300.241V27.8867H297.651V24.7129H299.568C300.22 24.7129 300.677 25.1403 300.939 25.9951C300.948 26.012 300.952 26.029 300.952 26.0459L301.155 26.6934H301.435ZM306.764 32V31.6699H305.748V28.5088H306.84L308.846 32H310.826C310.826 31.8053 310.771 31.6995 310.661 31.6826C310.619 31.6742 310.572 31.6699 310.521 31.6699H310.103L308.071 28.3945C308.884 28.1829 309.434 27.7555 309.722 27.1123C309.823 26.8669 309.874 26.6172 309.874 26.3633C309.874 25.7285 309.599 25.2207 309.049 24.8398C308.592 24.5352 308.033 24.3828 307.373 24.3828H303.514V24.7129H304.529V31.6699H303.514V32H306.764ZM306.916 24.7129C307.627 24.7129 308.118 25.0133 308.389 25.6143C308.49 25.8597 308.541 26.1178 308.541 26.3887C308.541 27.015 308.329 27.4932 307.906 27.8232C307.644 28.0348 307.331 28.1406 306.967 28.1406H305.748V24.7129H306.916Z" fill="#E0682F"/>
<path d="M52.7402 113.972H50.5693L47.9287 120.027L45.0342 113.972H43.1299V114.302H44.1455V121.259H43.1299V121.589H45.6689C45.6689 121.403 45.6012 121.297 45.4658 121.271C45.4235 121.263 45.3812 121.259 45.3389 121.259H44.6533V115.927L47.4209 121.665H47.6875L50.5693 115.152V121.259H49.5537V121.589H52.7402C52.7402 121.403 52.6725 121.297 52.5371 121.271C52.4948 121.263 52.4525 121.259 52.4102 121.259H51.7246V114.302H52.7402V113.972ZM61.9414 121.589C61.9414 121.394 61.8737 121.288 61.7383 121.271C61.696 121.263 61.6536 121.259 61.6113 121.259H61.1924L58.2725 113.972H57.7012L54.8701 121.259H54.0703V121.589H56.3428C56.3428 121.394 56.2793 121.288 56.1523 121.271C56.11 121.263 56.0677 121.259 56.0254 121.259H55.3779L56.3301 118.796H58.958L59.9102 121.259H59.0596V121.589H61.9414ZM58.8057 118.428H56.4697L57.6377 115.394L58.8057 118.428ZM68.7178 114.302H69.7842V119.85L65.0234 113.972H63.1826V114.302H64.1982V121.259H63.1826V121.589H65.7852C65.7852 121.403 65.7174 121.297 65.582 121.271C65.5397 121.263 65.4974 121.259 65.4551 121.259H64.7061V115.495L69.6826 121.652L70.292 121.525V114.302H71.3076V113.972H68.7178V114.302ZM80.293 121.589C80.293 121.394 80.2253 121.288 80.0898 121.271C80.0475 121.263 80.0052 121.259 79.9629 121.259H79.5439L76.624 113.972H76.0527L73.2217 121.259H72.4219V121.589H74.6943C74.6943 121.394 74.6309 121.288 74.5039 121.271C74.4616 121.263 74.4193 121.259 74.377 121.259H73.7295L74.6816 118.796H77.3096L78.2617 121.259H77.4111V121.589H80.293ZM77.1572 118.428H74.8213L75.9893 115.394L77.1572 118.428ZM86.4854 118.148V118.479H87.6152V120.573C87.1159 121.047 86.5192 121.301 85.8252 121.335C84.3187 121.335 83.502 120.357 83.375 118.402C83.3581 118.199 83.3496 117.992 83.3496 117.78C83.3496 115.673 84.0055 114.496 85.3174 114.251C85.4782 114.226 85.6432 114.213 85.8125 114.213C86.6758 114.213 87.3021 114.475 87.6914 115C87.9368 115.339 88.1484 115.842 88.3262 116.511H88.6689L88.6182 113.997L87.4883 114.238C86.9551 113.976 86.3796 113.845 85.7617 113.845C84.7207 113.845 83.8363 114.183 83.1084 114.86C82.3298 115.588 81.9404 116.545 81.9404 117.729C81.9404 119.118 82.4313 120.184 83.4131 120.929C84.1071 121.453 84.8942 121.716 85.7744 121.716C86.4261 121.716 87.0143 121.572 87.5391 121.284C87.5814 121.259 87.6195 121.238 87.6533 121.221L88.8213 121.589V118.479H89.748V118.148H86.4854ZM97.5781 116.282L97.5146 113.972H91.5605V114.302H92.5762V121.259H91.5605V121.589H97.5146L97.5781 119.278H97.2988L97.0957 119.926C96.8757 120.654 96.5371 121.081 96.0801 121.208C95.9616 121.242 95.8389 121.259 95.7119 121.259H93.7949V117.844H96.3848V117.476H93.7949V114.302H95.7119C96.3636 114.302 96.8206 114.729 97.083 115.584C97.0915 115.601 97.0957 115.618 97.0957 115.635L97.2988 116.282H97.5781Z" fill="#00A755"/>
<path d="M273.76 114.383V114.713H274.775V121.67H273.76V122H277.314C278.474 122 279.426 121.64 280.171 120.921C280.89 120.218 281.25 119.309 281.25 118.191C281.25 116.744 280.717 115.682 279.65 115.005C278.99 114.59 278.22 114.383 277.34 114.383H273.76ZM277.314 114.713C278.576 114.713 279.371 115.305 279.701 116.49C279.828 116.956 279.892 117.506 279.892 118.141C279.883 120.485 279.033 121.661 277.34 121.67H275.994V114.713H277.314ZM289.372 116.693L289.309 114.383H283.354V114.713H284.37V121.67H283.354V122H289.309L289.372 119.689H289.093L288.89 120.337C288.67 121.065 288.331 121.492 287.874 121.619C287.756 121.653 287.633 121.67 287.506 121.67H285.589V118.255H288.179V117.887H285.589V114.713H287.506C288.158 114.713 288.615 115.14 288.877 115.995C288.885 116.012 288.89 116.029 288.89 116.046L289.093 116.693H289.372ZM297.139 122L297.202 119.423H296.923L296.682 120.337C296.487 121.082 296.157 121.513 295.691 121.632C295.581 121.657 295.467 121.67 295.349 121.67H293.686V114.713H294.765V114.383H291.451V114.713H292.467V121.67H291.451V122H297.139ZM302.011 122C302.011 121.814 301.943 121.708 301.808 121.683C301.765 121.674 301.723 121.67 301.681 121.67H300.995V114.713H302.011V114.383H298.761V114.713H299.776V121.67H298.761V122H302.011ZM307.581 122.063L310.196 114.713H310.831V114.383H308.698V114.713H309.714L307.632 120.591L305.359 114.713H306.375V114.383H303.392V114.713H304.128L306.565 121.099C306.752 121.598 306.904 121.89 307.022 121.975C307.116 122.034 307.243 122.063 307.403 122.063H307.581ZM318.306 116.693L318.242 114.383H312.288V114.713H313.304V121.67H312.288V122H318.242L318.306 119.689H318.026L317.823 120.337C317.603 121.065 317.265 121.492 316.808 121.619C316.689 121.653 316.566 121.67 316.439 121.67H314.522V118.255H317.112V117.887H314.522V114.713H316.439C317.091 114.713 317.548 115.14 317.811 115.995C317.819 116.012 317.823 116.029 317.823 116.046L318.026 116.693H318.306ZM323.635 122V121.67H322.619V118.509H323.711L325.717 122H327.697C327.697 121.805 327.642 121.7 327.532 121.683C327.49 121.674 327.443 121.67 327.393 121.67H326.974L324.942 118.395C325.755 118.183 326.305 117.756 326.593 117.112C326.694 116.867 326.745 116.617 326.745 116.363C326.745 115.729 326.47 115.221 325.92 114.84C325.463 114.535 324.904 114.383 324.244 114.383H320.385V114.713H321.4V121.67H320.385V122H323.635ZM323.787 114.713C324.498 114.713 324.989 115.013 325.26 115.614C325.361 115.86 325.412 116.118 325.412 116.389C325.412 117.015 325.201 117.493 324.777 117.823C324.515 118.035 324.202 118.141 323.838 118.141H322.619V114.713H323.787Z" fill="#F3B45A"/>
<path d="M169.777 185.282L169.713 182.972H163.759V183.302H164.775V190.259H163.759V190.589H169.713L169.777 188.278H169.498L169.294 188.926C169.074 189.654 168.736 190.081 168.279 190.208C168.16 190.242 168.038 190.259 167.911 190.259H165.994V186.844H168.583V186.476H165.994V183.302H167.911C168.562 183.302 169.019 183.729 169.282 184.584C169.29 184.601 169.294 184.618 169.294 184.635L169.498 185.282H169.777ZM177.175 183.302H178.242V188.85L173.481 182.972H171.64V183.302H172.656V190.259H171.64V190.589H174.243C174.243 190.403 174.175 190.297 174.04 190.271C173.997 190.263 173.955 190.259 173.913 190.259H173.164V184.495L178.14 190.652L178.75 190.525V183.302H179.765V182.972H177.175V183.302ZM188.75 190.589C188.75 190.394 188.683 190.288 188.547 190.271C188.505 190.263 188.463 190.259 188.42 190.259H188.001L185.082 182.972H184.51L181.679 190.259H180.879V190.589H183.152C183.152 190.394 183.088 190.288 182.961 190.271C182.919 190.263 182.877 190.259 182.834 190.259H182.187L183.139 187.796H185.767L186.719 190.259H185.869V190.589H188.75ZM185.615 187.428H183.279L184.447 184.394L185.615 187.428ZM196.276 184.698C196.276 184.038 195.954 183.556 195.311 183.251C194.913 183.065 194.439 182.972 193.889 182.972H190.208V183.302H191.223V190.259H190.208V190.589H193.965C195.066 190.589 195.87 190.246 196.377 189.561C196.64 189.197 196.771 188.799 196.771 188.367C196.771 187.639 196.437 187.098 195.768 186.742C195.497 186.598 195.193 186.497 194.854 186.438C195.497 186.209 195.929 185.824 196.149 185.282C196.234 185.079 196.276 184.884 196.276 184.698ZM193.496 183.302C194.376 183.302 194.867 183.7 194.968 184.495C194.985 184.597 194.994 184.698 194.994 184.8C194.994 185.384 194.769 185.807 194.321 186.069C194.084 186.213 193.809 186.285 193.496 186.285H192.442V183.302H193.496ZM193.762 186.628C194.515 186.628 195.019 186.954 195.273 187.605C195.366 187.842 195.413 188.096 195.413 188.367C195.413 189.061 195.188 189.586 194.74 189.941C194.469 190.153 194.147 190.259 193.775 190.259H192.442V186.628H193.762ZM204.436 190.589L204.5 188.012H204.22L203.979 188.926C203.784 189.671 203.454 190.102 202.989 190.221C202.879 190.246 202.764 190.259 202.646 190.259H200.983V183.302H202.062V182.972H198.749V183.302H199.764V190.259H198.749V190.589H204.436ZM212.076 185.282L212.012 182.972H206.058V183.302H207.074V190.259H206.058V190.589H212.012L212.076 188.278H211.796L211.593 188.926C211.373 189.654 211.035 190.081 210.578 190.208C210.459 190.242 210.336 190.259 210.209 190.259H208.292V186.844H210.882V186.476H208.292V183.302H210.209C210.861 183.302 211.318 183.729 211.581 184.584C211.589 184.601 211.593 184.618 211.593 184.635L211.796 185.282H212.076Z" fill="#7E5C8E"/>
<defs>
<filter id="filter0_d" x="23" y="0" width="140" height="61" filterUnits="userSpaceOnUse" color-interpolation-filters="sRGB">
<feFlood flood-opacity="0" result="BackgroundImageFix"/>
<feColorMatrix in="SourceAlpha" type="matrix" values="0 0 0 0 0 0 0 0 0 0 0 0 0 0 0 0 0 0 127 0"/>
<feOffset/>
<feGaussianBlur stdDeviation="5"/>
<feColorMatrix type="matrix" values="0 0 0 0 0.459494 0 0 0 0 0.459494 0 0 0 0 0.459494 0 0 0 0.5 0"/>
<feBlend mode="normal" in2="BackgroundImageFix" result="effect1_dropShadow"/>
<feBlend mode="normal" in="SourceGraphic" in2="effect1_dropShadow" result="shape"/>
</filter>
<filter id="filter1_d" x="0" y="89.5889" width="140" height="61" filterUnits="userSpaceOnUse" color-interpolation-filters="sRGB">
<feFlood flood-opacity="0" result="BackgroundImageFix"/>
<feColorMatrix in="SourceAlpha" type="matrix" values="0 0 0 0 0 0 0 0 0 0 0 0 0 0 0 0 0 0 127 0"/>
<feOffset/>
<feGaussianBlur stdDeviation="5"/>
<feColorMatrix type="matrix" values="0 0 0 0 0.565274 0 0 0 0 0.565274 0 0 0 0 0.565274 0 0 0 0.5 0"/>
<feBlend mode="normal" in2="BackgroundImageFix" result="effect1_dropShadow"/>
<feBlend mode="normal" in="SourceGraphic" in2="effect1_dropShadow" result="shape"/>
</filter>
<filter id="filter2_d" x="118" y="158.589" width="140" height="61" filterUnits="userSpaceOnUse" color-interpolation-filters="sRGB">
<feFlood flood-opacity="0" result="BackgroundImageFix"/>
<feColorMatrix in="SourceAlpha" type="matrix" values="0 0 0 0 0 0 0 0 0 0 0 0 0 0 0 0 0 0 127 0"/>
<feOffset/>
<feGaussianBlur stdDeviation="5"/>
<feColorMatrix type="matrix" values="0 0 0 0 0.471354 0 0 0 0 0.471354 0 0 0 0 0.471354 0 0 0 0.5 0"/>
<feBlend mode="normal" in2="BackgroundImageFix" result="effect1_dropShadow"/>
<feBlend mode="normal" in="SourceGraphic" in2="effect1_dropShadow" result="shape"/>
</filter>
<filter id="filter3_d" x="207" y="0" width="140" height="61" filterUnits="userSpaceOnUse" color-interpolation-filters="sRGB">
<feFlood flood-opacity="0" result="BackgroundImageFix"/>
<feColorMatrix in="SourceAlpha" type="matrix" values="0 0 0 0 0 0 0 0 0 0 0 0 0 0 0 0 0 0 127 0"/>
<feOffset/>
<feGaussianBlur stdDeviation="5"/>
<feColorMatrix type="matrix" values="0 0 0 0 0.51537 0 0 0 0 0.51537 0 0 0 0 0.51537 0 0 0 0.5 0"/>
<feBlend mode="normal" in2="BackgroundImageFix" result="effect1_dropShadow"/>
<feBlend mode="normal" in="SourceGraphic" in2="effect1_dropShadow" result="shape"/>
</filter>
</defs>
</svg>
