<svg width="212" height="39" viewBox="0 0 212 39" fill="none" xmlns="http://www.w3.org/2000/svg">
<path fill-rule="evenodd" clip-rule="evenodd" d="M126.752 8.68941H125L125.034 36.2761H127.392V26.2884H127.594C129.076 28.1138 131.265 29.2159 133.589 29.2847C137.968 29.2847 141 25.4274 141 18.7804C141 12.099 137.935 8.27612 133.589 8.27612C131.265 8.37944 129.042 9.48154 127.56 11.3069H127.358L126.752 8.68941ZM133.354 27.3561C131.131 27.3561 129.345 26.0818 127.358 23.5332V14.131C129.345 11.548 131.131 10.3425 133.354 10.3425C136.621 10.3425 138.575 13.3389 138.575 18.8493C138.575 24.3598 136.621 27.3561 133.354 27.3561Z" fill="#047BC1"/>
<path d="M146.038 8.58596H148.534V12.2351H148.798C150.273 9.51547 152.126 8.27612 154.887 8.27612H155V10.7204H154.622C151.672 10.7204 149.744 12.3728 148.496 16.2974V29.2761H146L146.038 8.58596Z" fill="#047BC1"/>
<rect x="158" y="8.27612" width="3" height="21" fill="#047BC1"/>
<path d="M172.671 27.4151C175.429 27.4151 177.279 25.8316 177.279 23.6974C177.279 21.3223 175.211 20.7027 171.51 19.4634C166.975 17.9489 164.653 16.7785 164.653 13.6805C164.653 10.5824 167.41 8.27612 171.873 8.27612C174.884 8.31055 177.642 9.72187 179.274 11.9938L177.388 13.1985C176.082 11.3053 173.832 10.1694 171.401 10.1694C170.385 10.0661 169.333 10.3759 168.571 11.0299C167.81 11.684 167.374 12.5789 167.41 13.5083C167.41 15.677 169.587 16.1933 173.288 17.4669C177.714 18.9815 180 20.2207 180 23.4565C180 26.6922 177.025 29.2739 172.417 29.2739C169.043 29.3427 165.887 27.8281 164 25.2809L165.959 23.8351C167.882 26.2447 170.095 27.4151 172.671 27.4151Z" fill="#047BC1"/>
<path d="M185.145 8.62265H187.461V11.8239H187.606C189.85 9.41437 192.202 8.27843 194.446 8.27843C196.763 8.20958 198.826 9.68975 199.513 11.8239H199.803C202.119 9.41437 204.363 8.27843 206.643 8.27843C210.227 8.27843 212 10.4815 212 14.8875V29.2761H209.611V15.7825C209.611 12.1337 208.96 10.4126 205.956 10.4126C204.001 10.4126 201.902 11.6174 199.803 14.2335V29.2761H197.306V15.7825C197.306 12.1337 196.654 10.4126 193.65 10.4126C191.696 10.4126 189.633 11.6174 187.497 14.2335V29.2761H185L185.145 8.62265Z" fill="#047BC1"/>
<path fill-rule="evenodd" clip-rule="evenodd" d="M55.8484 10.8528V0.311496V0.276123H52.2343V23.941C52.2343 25.8511 52.2008 27.832 52 29.9544H54.878L55.4469 27.4429C56.685 29.2823 58.7264 30.3435 60.8681 30.2728C65.9213 30.2728 69 26.2048 69 19.0948C69 12.2677 65.7205 8.19977 60.8346 8.19977C58.8602 8.1644 56.9862 9.15486 55.8484 10.8528ZM65.185 19.3778C65.185 24.4008 63.378 27.0538 60.2657 27.0538C58.4587 26.9477 56.8189 25.9219 55.815 24.3301V13.9303C56.7854 12.4446 58.3917 11.4895 60.1319 11.4188C63.378 11.4188 65.185 14.1071 65.185 19.3778Z" fill="#124E91"/>
<path d="M76 1.27612V29.2761H73V1.27612H76Z" fill="#124E91"/>
<path d="M85.8095 8.27612V22.1389C85.8095 24.8497 86.7166 26.1193 88.8934 26.1193C90.9615 25.9477 92.8844 24.9526 94.1905 23.3742V8.31044H98V28.8987H94.4444V26.1536C92.0862 28.2124 90.0544 29.2761 87.6961 29.2761C84.1043 29.2761 82 27.1144 82 23.2369V8.34475H85.8095V8.27612Z" fill="#124E91"/>
<path fill-rule="evenodd" clip-rule="evenodd" d="M106.612 19.8066V19.428L118.899 19.3935V18.361C118.899 11.959 115.861 8.27612 111.135 8.27612C106.004 8.27612 103 12.0622 103 18.9805C103 25.6923 105.97 29.2719 111.371 29.2719C114.578 29.3751 117.549 27.5853 119 24.6597L116.367 23.042C115.523 24.9695 113.633 26.2086 111.574 26.2086C108.435 26.2086 106.612 23.9025 106.612 19.8066ZM106.646 16.5712C106.814 13.0948 108.435 11.2018 111.034 11.2018C113.532 11.2018 115.152 13.1292 115.219 16.5712H106.646Z" fill="#124E91"/>
<path fill-rule="evenodd" clip-rule="evenodd" d="M212 3.27612C212 1.6173 210.659 0.276123 209 0.276123C207.341 0.276123 206.035 1.6173 206 3.27612C206 4.93495 207.341 6.27612 209 6.27612C210.659 6.27612 212 4.93495 212 3.27612ZM210.729 5.00553C210.306 5.46436 209.671 5.74671 209 5.74671H208.929V5.85259C208.259 5.85259 207.624 5.57024 207.165 5.07612C206.706 4.58201 206.494 3.91142 206.529 3.24083C206.459 2.32318 206.918 1.44083 207.694 0.982005C208.471 0.523182 209.459 0.487888 210.235 0.982005C211.012 1.47612 211.471 2.32318 211.4 3.24083C211.435 3.87612 211.153 4.54671 210.729 5.00553ZM207.871 1.51142H209.247C210.059 1.51142 210.447 1.82906 210.447 2.49965C210.482 2.74671 210.376 2.99377 210.2 3.20553C210.024 3.38201 209.776 3.48789 209.529 3.48789L210.518 5.04083H209.918L208.929 3.48789H208.435V5.04083H207.941L207.871 1.51142ZM209.141 3.02906H208.471V1.97024H209.141C209.529 1.97024 209.882 2.00553 209.882 2.46436C209.882 2.92318 209.565 3.02906 209.141 3.02906Z" fill="#167EC2"/>
<path d="M35.7614 18.2876L28.5947 22.2305V22.2647L35.8331 30.219L42.9997 26.2419L35.7614 18.2876Z" fill="#0E7ABF"/>
<path d="M35.8336 30.219L28.7028 34.1619L21.5361 26.139L28.5953 22.2305V22.2648L35.8336 30.219Z" fill="#D3E2EE"/>
<path d="M35.7617 18.2875L28.595 22.2304L21.5 14.3447L28.5233 10.3333H28.5592L35.7617 18.2875Z" fill="#D3E2EE"/>
<path d="M21.5361 38.1732L28.7028 34.1618L21.5361 26.1389V38.1732Z" fill="#0E7ABF"/>
<path d="M21.4997 14.3447L28.5947 22.2304L21.5355 26.139L21.4639 14.3447H21.4997Z" fill="#104C8D"/>
<path d="M21.4639 14.3446H21.4997L28.523 10.3331H28.5589L21.4639 2.55029V14.3446Z" fill="#0E7ABF"/>
<path d="M7.16699 30.1162L21.5362 38.1733V26.1391L14.3337 22.2305L7.23866 18.3562L7.16699 30.1162Z" fill="#0068AB"/>
<path d="M21.4645 14.3446L21.5362 26.1389L14.3337 22.2304L14.2979 10.5046L21.4645 14.3446Z" fill="#1E3667"/>
<path d="M21.4645 2.55029L14.2979 10.5046L21.4645 14.3446V2.55029Z" fill="#0068AB"/>
<path d="M14.3333 22.2304L7.23828 18.3561L14.2974 10.5046L14.3333 22.2304Z" fill="#B1C8D5"/>
<path d="M0.178711 26.2419L7.16621 30.1162L7.23788 18.3562L0.178711 26.2419Z" fill="#1E3667"/>
</svg>
