<svg width="78" height="15" viewBox="0 0 78 15" fill="none" xmlns="http://www.w3.org/2000/svg">
<path fill-rule="evenodd" clip-rule="evenodd" d="M46.6568 3.92397H46L46.0126 13.7764H46.8968V10.2093H46.9726C47.5284 10.8612 48.3495 11.2548 49.2211 11.2794C50.8632 11.2794 52 9.90183 52 7.5279C52 5.14168 50.8505 3.77637 49.2211 3.77637C48.3495 3.81327 47.5158 4.20687 46.96 4.85878H46.8842L46.6568 3.92397ZM49.1326 10.5906C48.2989 10.5906 47.6295 10.1355 46.8842 9.22532V5.86739C47.6295 4.94488 48.2989 4.51437 49.1326 4.51437C50.3579 4.51437 51.0905 5.58449 51.0905 7.5525C51.0905 9.52052 50.3579 10.5906 49.1326 10.5906Z" fill="#047BC1"/>
<path d="M54.0126 3.8944H54.8445V5.28456H54.9328C55.4244 4.2485 56.042 3.77637 56.9622 3.77637H57V4.70751H56.8739C55.8908 4.70751 55.2479 5.33702 54.8319 6.8321V11.7764H54L54.0126 3.8944Z" fill="#047BC1"/>
<rect x="58" y="3.77637" width="1" height="8" fill="#047BC1"/>
<path d="M63.2517 11.0674C64.2857 11.0674 64.9796 10.4642 64.9796 9.65115C64.9796 8.74633 64.2041 8.51029 62.8163 8.03821C61.1156 7.46122 60.2449 7.01536 60.2449 5.83516C60.2449 4.65496 61.2789 3.77637 62.9524 3.77637C64.0816 3.78948 65.1156 4.32713 65.7279 5.19261L65.0204 5.65158C64.5306 4.93034 63.6871 4.4976 62.7755 4.4976C62.3946 4.45826 62 4.57628 61.7143 4.82544C61.4286 5.07459 61.2653 5.41554 61.2789 5.7696C61.2789 6.59574 62.0952 6.79244 63.483 7.27763C65.1429 7.85462 66 8.3267 66 9.55935C66 10.792 64.8844 11.7755 63.1565 11.7755C61.8912 11.8017 60.7075 11.2247 60 10.2544L60.7347 9.7036C61.4558 10.6215 62.2857 11.0674 63.2517 11.0674Z" fill="#047BC1"/>
<path d="M68.0536 3.90838H68.9115V5.12792H68.9651C69.7962 4.20998 70.6676 3.77725 71.4987 3.77725C72.3566 3.75102 73.1206 4.31489 73.3753 5.12792H73.4826C74.3405 4.20998 75.1716 3.77725 76.0161 3.77725C77.3432 3.77725 78 4.6165 78 6.295V11.7764H77.1153V6.63595C77.1153 5.24594 76.874 4.59027 75.7614 4.59027C75.0375 4.59027 74.2601 5.04924 73.4826 6.04585V11.7764H72.5576V6.63595C72.5576 5.24594 72.3164 4.59027 71.2038 4.59027C70.4799 4.59027 69.7158 5.04924 68.9249 6.04585V11.7764H68L68.0536 3.90838Z" fill="#047BC1"/>
<path fill-rule="evenodd" clip-rule="evenodd" d="M20.3583 4.65447V0.789337V0.776367H19.0827V9.45347C19.0827 10.1539 19.0709 10.8802 19 11.6584H20.0157L20.2165 10.7375C20.6535 11.412 21.374 11.8011 22.1299 11.7751C23.9134 11.7751 25 10.2836 25 7.67655C25 5.17329 23.8425 3.68171 22.1181 3.68171C21.4213 3.66874 20.7598 4.0319 20.3583 4.65447ZM23.6535 7.78031C23.6535 9.62208 23.0157 10.5949 21.9173 10.5949C21.2795 10.5559 20.7008 10.1798 20.3465 9.59614V5.78289C20.689 5.23814 21.2559 4.88794 21.8701 4.862C23.0157 4.862 23.6535 5.84774 23.6535 7.78031Z" fill="#124E91"/>
<path d="M28 0.776367V10.7764H27V0.776367H28Z" fill="#124E91"/>
<path d="M31.4286 3.77637V9.05741C31.4286 10.0901 31.7687 10.5738 32.585 10.5738C33.3605 10.5084 34.0816 10.1293 34.5714 9.528V3.78944H36V11.6326H34.6667V10.5868C33.7823 11.3711 33.0204 11.7764 32.1361 11.7764C30.7891 11.7764 30 10.9528 30 9.47571V3.80251H31.4286V3.77637Z" fill="#124E91"/>
<path fill-rule="evenodd" clip-rule="evenodd" d="M39.3544 8.16892V8.02469L43.962 8.01158V7.61821C43.962 5.17936 42.8228 3.77637 41.0506 3.77637C39.1266 3.77637 38 5.2187 38 7.85423C38 10.4111 39.1139 11.7748 41.1392 11.7748C42.3418 11.8141 43.4557 11.1323 44 10.0177L43.0127 9.40146C42.6962 10.1357 41.9873 10.6078 41.2152 10.6078C40.038 10.6078 39.3544 9.72926 39.3544 8.16892ZM39.3671 6.93638C39.4304 5.61206 40.038 4.8909 41.0127 4.8909C41.9494 4.8909 42.557 5.62517 42.5823 6.93638H39.3671Z" fill="#124E91"/>
<path fill-rule="evenodd" clip-rule="evenodd" d="M78 1.77637C78 1.22343 77.5529 0.776367 77 0.776367C76.4471 0.776367 76.0118 1.22343 76 1.77637C76 2.32931 76.4471 2.77637 77 2.77637C77.5529 2.77637 78 2.32931 78 1.77637ZM77.5765 2.35284C77.4353 2.50578 77.2235 2.5999 77 2.5999H76.9765V2.63519C76.7529 2.63519 76.5412 2.54107 76.3882 2.37637C76.2353 2.21166 76.1647 1.98813 76.1765 1.7646C76.1529 1.45872 76.3059 1.1646 76.5647 1.01166C76.8235 0.85872 77.1529 0.846955 77.4118 1.01166C77.6706 1.17637 77.8235 1.45872 77.8 1.7646C77.8118 1.97637 77.7176 2.1999 77.5765 2.35284ZM76.6235 1.18813H77.0824C77.3529 1.18813 77.4824 1.29401 77.4824 1.51754C77.4941 1.5999 77.4588 1.68225 77.4 1.75284C77.3412 1.81166 77.2588 1.84696 77.1765 1.84696L77.5059 2.3646H77.3059L76.9765 1.84696H76.8118V2.3646H76.6471L76.6235 1.18813ZM77.0471 1.69401H76.8235V1.34107H77.0471C77.1765 1.34107 77.2941 1.35284 77.2941 1.50578C77.2941 1.65872 77.1882 1.69401 77.0471 1.69401Z" fill="#167EC2"/>
<path d="M13.3068 7.55859L10.6401 8.9824V8.99478L13.3335 11.8672L16.0001 10.431L13.3068 7.55859Z" fill="#0E7ABF"/>
<path d="M13.3332 11.8672L10.6799 13.291L8.01318 10.3939L10.6399 8.98242V8.9948L13.3332 11.8672Z" fill="#D3E2EE"/>
<path d="M13.3067 7.55793L10.64 8.98174L8 6.13412L10.6133 4.68555H10.6267L13.3067 7.55793Z" fill="#D3E2EE"/>
<path d="M8.01318 14.7393L10.6799 13.2907L8.01318 10.3936V14.7393Z" fill="#0E7ABF"/>
<path d="M8.00015 6.13477L10.6401 8.98238L8.01348 10.3938L7.98682 6.13477H8.00015Z" fill="#104C8D"/>
<path d="M7.98682 6.13405H8.00015L10.6135 4.68548H10.6268L7.98682 1.875V6.13405Z" fill="#0E7ABF"/>
<path d="M2.6665 11.8297L8.01317 14.7392V10.3935L5.33317 8.98206L2.69317 7.58301L2.6665 11.8297Z" fill="#0068AB"/>
<path d="M7.98649 6.13471L8.01316 10.3938L5.33316 8.98233L5.31982 4.74805L7.98649 6.13471Z" fill="#1E3667"/>
<path d="M7.98649 1.875L5.31982 4.74738L7.98649 6.13405V1.875Z" fill="#0068AB"/>
<path d="M5.33336 8.98233L2.69336 7.58328L5.32003 4.74805L5.33336 8.98233Z" fill="#B1C8D5"/>
<path d="M0.0668945 10.4306L2.66689 11.8297L2.69356 7.58301L0.0668945 10.4306Z" fill="#1E3667"/>
</svg>
