<svg width="78" height="27" viewBox="0 0 78 27" fill="none" xmlns="http://www.w3.org/2000/svg">
<path fill-rule="evenodd" clip-rule="evenodd" d="M0 0.714844H26.5416V26.7148H0V0.714844ZM23.786 24.0028V3.41416H2.75554V24.0028H23.786ZM5.14714 15.281V7.42493H7.87669V15.281C7.87669 17.2545 8.72155 18.4514 10.6322 18.4514C12.4389 18.4514 13.3358 17.3054 13.3358 15.281V7.42493H16.0913V15.281C16.0913 18.8716 14.0767 20.9979 10.5672 20.9979C7.16181 20.9979 5.14714 18.8716 5.14714 15.281ZM19.6397 9.02924C20.6016 9.02924 21.3424 8.35441 21.3424 7.4122C21.3424 6.41906 20.6536 5.74423 19.6397 5.74423C18.6779 5.74423 17.937 6.41906 17.937 7.4122C17.95 8.35441 18.6909 9.02924 19.6397 9.02924ZM18.262 20.8451V10.277H21.0175V20.8451H18.262ZM34.7172 16.5288C37.6937 16.5288 39.6564 14.8098 39.6564 11.9577C39.6564 9.2075 37.7457 7.43766 34.7172 7.43766H29.5181V20.9088H32.2736V16.5924H34.7172V16.5288ZM32.2346 14.3897H34.4053C35.991 14.3897 36.8489 13.5111 36.8489 11.945C36.8489 10.4808 36.004 9.60221 34.4053 9.60221H32.2346V14.3897ZM40.5662 15.5865C40.5662 18.757 42.6329 20.9979 45.5574 20.9979C47.3121 20.9979 48.4299 20.374 49.0668 19.3809V20.8833H51.8224V10.277H49.0668V11.945C48.3779 10.85 47.2601 10.1752 45.5574 10.1752C42.5809 10.1752 40.5662 12.467 40.5662 15.5865ZM46.1813 18.6042C47.884 18.6042 49.0538 17.4073 49.0538 15.5865C49.0538 13.7658 47.923 12.518 46.1813 12.518C44.4396 12.518 43.3738 13.7148 43.3738 15.5865C43.3738 17.3054 44.3226 18.6042 46.1813 18.6042ZM58.7112 18.5532C57.6454 18.5532 57.3854 18.0821 57.3854 17.1526V12.5689H59.777V10.277H57.3854V7.36127H54.6299V10.277H53.3561V12.5689H54.6299V17.1526C54.6299 19.6482 55.7477 20.8451 58.3993 20.8451H59.829V18.5532H58.7112ZM64.0793 6.80103V11.7922C64.7162 10.7481 65.73 10.1752 67.3158 10.1879C69.8634 10.1879 71.878 12.0087 71.878 14.7589V20.8451H69.1225V15.0136C69.1225 13.4093 68.2776 12.3652 66.6789 12.3652C65.0412 12.3652 64.0793 13.4602 64.0793 15.281V20.896H61.3238V6.80103H64.0793ZM71.6701 6.7501V7.17028H72.5669V9.86959H73.0998V7.17028H73.9447V6.7501H71.6701ZM76.2843 9.2457L77.4021 6.7501H78V9.86959H77.5191V7.47586L76.5052 9.86959H76.1283L75.0625 7.47586V9.86959H74.5816V6.7501H75.2185L76.2843 9.2457Z" fill="#FA4616"/>
</svg>
